<?xml version="1.0" encoding="utf-8"?>
<!-- Generator: Adobe Illustrator 27.5.0, SVG Export Plug-In . SVG Version: 6.00 Build 0)  -->
<svg version="1.1" xmlns="http://www.w3.org/2000/svg" xmlns:xlink="http://www.w3.org/1999/xlink" x="0px" y="0px"
	 viewBox="190 245 120 215" style="enable-background:new 0 0 500 500; --fillColor: #A90C1F; --fillColor-light: #D10F29; transition: --fillColor 0.5s ease, --fillColor-light 0.5s ease;" xml:space="preserve">

  <defs>
    <filter id="cadre-noir" x="-25%" y="-25%" width="150%" height="150%">
    <feGaussianBlur in="SourceAlpha" stdDeviation="2" result="blur"/>
    <feComponentTransfer in="blur" result="sharpened">
      <feFuncA type="linear" slope="30" intercept="-5"/>
    </feComponentTransfer>
    <feFlood flood-color="#000000" flood-opacity="1" result="pureBlack"/>
    <feComposite in="pureBlack" in2="sharpened" operator="in" result="outline"/>
    <feMerge>
      <feMergeNode in="outline"/>
      <feMergeNode in="SourceGraphic"/>
    </feMerge>
  </filter>
  </defs>
<g filter="url(#cadre-noir)">

		<path style="fill:var(--fillColor);" d="M286.92,300.854c0.415-18.645-0.242-23.81-4.928-28.651c-4.659-4.841-23.969-5.753-32.141-5.753
				c-8.172,0-27.481,0.912-32.138,5.753c-4.686,4.841-5.362,9.063-4.916,28.651c1.477,26.832-3.259,129.254,4.131,135.976
				c8.081,6.74,24.539,7.01,32.924,7.01c8.385,0,24.843-0.269,32.927-7.01C290.178,430.108,285.459,327.686,286.92,300.854z"/>
			<path style="fill:var(--fillColor-light);" d="M283.654,305.082c0.345-18.05-0.376-19.731-4.648-24.157c-4.246-4.425-21.736-6.238-29.153-6.238
				c-7.417,0-24.907,1.812-29.15,6.238c-4.274,4.426-5.035,4.111-4.639,24.157c0.078,4.172,0.65,10.453,1.934,16.648
				c2.331,5.256,3.615,13.947,4.484,22.411c-0.958,1.379-1.516,4.102-1.513,6.983c-1.258,3.936-0.334,11.956-0.051,17.086
				c0.016,0.281-0.024,1.173-0.009,1.454c0.014,0-0.901,17.718-0.265,25.538c0.159,1.892,0.545,4.511,0.862,5.098
				c0.243,2.402-3.173,12.426-2.888,14.271c0,0,0.298,10.922,1.326,11.785c7.37,6.162,22.298,6.408,29.909,6.408
				c7.611,0,22.539-0.247,29.912-6.408c1.028-0.863,1.331-11.785,1.331-11.785c0.286-1.845-3.128-11.869-2.885-14.271
				c0.482-1.387,0.704-3.206,0.863-5.098c0.637-7.82-0.275-25.538-0.261-25.538c0.016-0.28-0.025-1.173-0.009-1.454
				c0.284-5.131,1.208-13.151-0.05-17.086c0.004-2.881-0.555-5.603-1.513-6.983c0.868-8.464,2.152-17.155,4.482-22.411
				C283.006,315.535,283.577,309.255,283.654,305.082z"/>
			<g>
				<path style="fill:var(--fillColor);" d="M238.851,302.655c-2.069-11.678-4.105-18.37-6.15-30.052c0.804-0.128,1.607-0.255,2.411-0.383
					C236.364,284.03,237.602,290.849,238.851,302.655z"/>
				<path style="fill:var(--fillColor);" d="M260.878,302.655c1.245-11.805,2.48-18.625,3.731-30.435c0.803,0.128,1.607,0.255,2.411,0.383
					C264.977,284.285,262.943,290.977,260.878,302.655z"/>
			</g>
			<g>
				<path style="fill:#282F3A;" d="M220.918,368.21c0.046-7.82,0.062-10.13,0.049-17.951c-1.632-8.915-3.304-17.83-5.036-26.744
					c-0.833,9.595-0.766,27.926-0.729,44.695C217.107,368.21,219.013,368.21,220.918,368.21z"/>
				<path style="fill:#282F3A;" d="M215.208,369.664c0.084,17.539,0.247,32.667,0.25,32.667c1.738-2.376,3.467-4.752,5.186-7.129
					c0.123-8.512,0.212-17.025,0.265-25.538C219.009,369.664,217.109,369.664,215.208,369.664z"/>
			</g>
			<path style="fill:var(--fillColor);" d="M249.859,310.912c0.012,0-18.738-0.238-32.367,9.875c1.559,7.47,3.075,14.94,4.562,22.411
				c0,0,7.497-6.469,27.807-6.469c20.311,0,27.808,6.469,27.808,6.469c1.486-7.471,3.002-14.941,4.559-22.411
				C268.597,310.674,249.848,310.912,249.859,310.912z"/>
			<path style="fill:#282F3A;" d="M249.859,311.855c0.011,0-18.442-0.238-31.862,9.875c1.532,7.47,3.023,14.94,4.484,22.411
				c0,0,7.383-6.469,27.38-6.469c19.997,0,27.38,6.469,27.38,6.469c1.461-7.471,2.951-14.941,4.482-22.411
				C268.302,311.617,249.848,311.856,249.859,311.855z"/>
			<g>
				<path style="fill:#3A454F;" d="M278.804,368.21c-0.045-7.82-0.061-10.13-0.049-17.951c1.632-8.915,3.303-17.83,5.034-26.744
					c0.835,9.595,0.769,27.926,0.731,44.695C282.615,368.21,280.71,368.21,278.804,368.21z"/>
				<path style="fill:#3A454F;" d="M284.514,369.664c-0.085,17.539-0.252,32.667-0.255,32.667c-1.738-2.376-3.466-4.752-5.185-7.129
					c-0.121-8.512-0.208-17.025-0.261-25.538C280.713,369.664,282.614,369.664,284.514,369.664z"/>
			</g>
			<path style="fill:#282F3A;" d="M278.211,400.3c-6.844,1.902-49.861,1.902-56.705,0c0.007,0-3.389,8.637-2.888,14.271
				c4.628,2.863,14.56,6.5,31.238,6.5c16.678,0,26.611-3.637,31.24-6.5C281.598,408.936,278.204,400.3,278.211,400.3z"/>
			<path style="fill:#3A454F;" d="M277.241,344.141c1.461-7.47,2.951-14.941,4.482-22.411c-13.422-10.113-31.875-9.875-31.864-9.875
				c0.001,8.605,0.002,17.21,0.002,25.816C269.858,337.672,277.242,344.141,277.241,344.141z"/>
			<path style="fill:#3A454F;" d="M278.211,400.3c-0.231,0.064-0.482,0.121-0.745,0.173c-0.07,0.014-0.16,0.026-0.235,0.04
				c-0.155,0.027-0.306,0.057-0.471,0.081c-4.711,0.755-15.796,1.134-26.903,1.134c-0.001,6.449-0.002,12.897-0.003,19.345
				c16.678,0,26.611-3.637,31.24-6.5C281.598,408.937,278.204,400.3,278.211,400.3z"/>
			<path style="fill:#282F3A;" d="M249.851,266.45c-2.913,0-7.244,0.117-11.82,0.486c0.52,0.695,1.036,1.394,1.53,2.118
				c0.341,0.495,20.241,0.495,20.581,0c0.494-0.724,1.009-1.424,1.529-2.118C257.095,266.567,252.765,266.45,249.851,266.45z"/>
			<g>
				<path style="fill:#BDD6DB;" d="M218.703,273.716c-0.08,0.144-0.158,0.29-0.229,0.442
					C218.545,274.006,218.624,273.861,218.703,273.716z"/>
				<path style="fill:#BDD6DB;" d="M219.364,272.704c2.961-3.799,8.992-4.354,9.609-4.615c0.036-0.015,0.06-0.048,0.092-0.069
					c-4.605,0.793-8.639,1.962-10.77,3.661C218.68,271.935,219.034,272.248,219.364,272.704z"/>
				<path style="fill:#EC9100;" d="M219.365,272.705L219.365,272.705c-0.245,0.313-0.463,0.652-0.661,1.011
					C218.903,273.359,219.12,273.018,219.365,272.705z"/>
				<path style="fill:#EC9100;" d="M216.15,276.411c0.111,0.038,0.224,0.063,0.336,0.074c0.661,0.068,1.332-0.314,1.501-0.985
					c0.085-0.339,0.198-0.656,0.322-0.962c0.052-0.13,0.108-0.255,0.166-0.379c0.072-0.152,0.149-0.298,0.229-0.442
					c0.198-0.359,0.416-0.698,0.661-1.012c-0.33-0.456-0.684-0.77-1.068-1.023c-0.212,0.169-0.411,0.341-0.583,0.521
					c-1.009,1.043-1.832,2.058-2.498,3.203C215.352,275.856,215.675,276.246,216.15,276.411z"/>
			</g>
			<g>
				<path style="fill:#BDD6DB;" d="M284.485,275.504L284.485,275.504c0.023-0.063,0.053-0.123,0.068-0.189l0,0l0,0.001
					C284.538,275.381,284.508,275.441,284.485,275.504z"/>
				<path style="fill:#BDD6DB;" d="M283.949,276.226c-0.108,0.075-0.226,0.139-0.356,0.185
					C283.723,276.365,283.842,276.302,283.949,276.226z"/>
				<path style="fill:#BDD6DB;" d="M280.377,272.704c0.324-0.449,0.673-0.759,1.049-1.009c-2.12-1.701-6.144-2.872-10.743-3.667
					c0.03,0.018,0.05,0.048,0.082,0.061C271.383,268.351,277.415,268.905,280.377,272.704z"/>
				<path style="fill:#BDD6DB;" d="M284.426,275.666c-0.001,0.003-0.003,0.005-0.005,0.008c-0.054,0.106-0.12,0.206-0.196,0.297
					c-0.025,0.029-0.056,0.053-0.084,0.08c0.153-0.156,0.267-0.342,0.344-0.547l0,0
					C284.465,275.558,284.452,275.615,284.426,275.666z"/>
				<path style="fill:#EC9100;" d="M280.376,272.705c0.24,0.308,0.456,0.64,0.651,0.992c0.086,0.154,0.169,0.311,0.246,0.474
					c0.055,0.118,0.108,0.236,0.157,0.358c0.126,0.309,0.24,0.628,0.326,0.971C281.482,274.407,280.99,273.491,280.376,272.705
					C280.377,272.704,280.376,272.704,280.376,272.705z"/>
				<path style="fill:#EC9100;" d="M283.949,276.226c0.071-0.05,0.131-0.113,0.191-0.174l0,0
					C284.081,276.113,284.021,276.175,283.949,276.226L283.949,276.226z"/>
				<path style="fill:#EC9100;" d="M283.257,276.485c-0.33,0.034-0.663-0.045-0.935-0.216
					C282.593,276.44,282.927,276.519,283.257,276.485z"/>
				<path style="fill:#EC9100;" d="M284.421,275.674c0.001-0.003,0.003-0.005,0.005-0.008c0.026-0.052,0.039-0.109,0.059-0.163
					c-0.664-1.202-1.485-2.26-2.493-3.301c-0.168-0.175-0.361-0.343-0.566-0.508c-0.376,0.251-0.724,0.561-1.049,1.009
					c0.613,0.787,1.105,1.703,1.379,2.795c0.085,0.336,0.295,0.599,0.566,0.77c0.272,0.171,0.604,0.249,0.935,0.216
					c0.112-0.011,0.224-0.036,0.336-0.074c0.131-0.045,0.248-0.109,0.356-0.185c0.072-0.051,0.132-0.113,0.192-0.175
					c0.027-0.027,0.059-0.051,0.084-0.08C284.301,275.88,284.367,275.78,284.421,275.674z"/>
			</g>
			<path style="fill:var(--fillColor-light);" d="M249.851,441.211c3.739,0,9.072-0.058,14.557-0.713c-0.027-0.131-0.054-0.263-0.081-0.394
				c-0.237-1.155-1.337-2.019-2.468-1.961c-7.996,0.414-16.021,0.414-24.017,0c-1.13-0.058-2.231,0.805-2.469,1.961
				c-0.027,0.132-0.054,0.263-0.081,0.394C240.78,441.154,246.112,441.211,249.851,441.211z"/>
			<g>
				<path style="fill:#DD3E3E;" d="M230.539,441.608c0.002-0.01,0.005-0.019,0.007-0.029c0.186-0.781-0.288-1.545-1.06-1.729
					c-2.297-0.549-4.572-1.193-6.818-1.931c-0.75-0.246-1.572,0.151-1.85,0.908c-0.003,0.009-0.007,0.019-0.01,0.028
					c-0.05,0.137-0.055,0.275-0.065,0.413c2.779,1.396,6.014,2.365,9.376,3.038C230.311,442.114,230.471,441.888,230.539,441.608z"
					/>
				<path style="fill:#DD3E3E;" d="M278.887,438.827c-0.278-0.756-1.1-1.154-1.85-0.908c-2.246,0.738-4.522,1.382-6.819,1.931
					c-0.772,0.184-1.246,0.948-1.06,1.729c0.002,0.01,0.004,0.019,0.007,0.029c0.067,0.281,0.228,0.507,0.42,0.698
					c3.362-0.673,6.597-1.642,9.377-3.038c-0.01-0.138-0.014-0.276-0.065-0.413C278.894,438.845,278.89,438.836,278.887,438.827z"/>
			</g>
			<g>
				<path style="fill:#282F3A;" d="M213.722,326.224c-0.061,1.088-0.122,2.176-0.184,3.265c-0.016,0.278,0.114,0.545,0.338,0.698
					c0.202,0.137,0.404,0.275,0.606,0.412c0.191-1.845,0.38-3.69,0.568-5.535c-0.316,0.179-0.633,0.358-0.949,0.537
					C213.88,325.725,213.737,325.961,213.722,326.224z"/>
				<path style="fill:var(--fillColor);" d="M213.553,328.422c-2.775,0.7-5.549,1.399-8.322,2.099c-0.645,0.163-1.233-0.481-1.021-1.137
					c0.373-1.158,1.452-2.734,4.497-3.622c3.074-0.897,4.62,0.084,5.369,1.04C214.529,327.38,214.243,328.248,213.553,328.422z"/>
			</g>
			<g>
				<path style="fill:#282F3A;" d="M286.431,326.224c0.061,1.088,0.122,2.176,0.184,3.265c0.016,0.278-0.113,0.545-0.338,0.698
					c-0.202,0.137-0.404,0.275-0.606,0.412c-0.191-1.845-0.38-3.69-0.568-5.535c0.316,0.179,0.633,0.358,0.949,0.537
					C286.274,325.725,286.417,325.961,286.431,326.224z"/>
				<path style="fill:var(--fillColor);" d="M286.6,328.422c2.775,0.7,5.549,1.399,8.322,2.099c0.645,0.163,1.233-0.481,1.021-1.137
					c-0.373-1.158-1.452-2.734-4.497-3.622c-3.074-0.897-4.62,0.084-5.369,1.04C285.624,327.38,285.911,328.248,286.6,328.422z"/>
			</g>
			<g>
				<path style="fill:#FFA312;" d="M230.539,441.608c0.002-0.01,0.005-0.019,0.007-0.029c0.186-0.781-0.288-1.545-1.06-1.729
					c-0.569-0.136-1.133-0.296-1.699-0.443c-0.078,0.772-0.157,1.544-0.236,2.316c0.844,0.215,1.701,0.41,2.567,0.584
					C230.311,442.114,230.472,441.888,230.539,441.608z"/>
				<path style="fill:#FFA312;" d="M269.158,441.579c0.002,0.01,0.004,0.019,0.007,0.029c0.067,0.281,0.227,0.507,0.42,0.698
					c0.867-0.174,1.723-0.368,2.567-0.584c-0.079-0.772-0.157-1.544-0.235-2.316c-0.566,0.148-1.13,0.307-1.699,0.443
					C269.447,440.034,268.972,440.798,269.158,441.579z"/>
			</g>
			<g>
				<g>
					<path style="fill:#282F3A;" d="M212.854,365.274c-0.004,0-0.008,0-0.013,0c-0.347,0-0.627-0.295-0.626-0.659
						c0.005-1.307,0.009-2.614,0.012-3.921c0.001-0.364,0.283-0.658,0.629-0.658c0.004,0,0.008,0,0.013,0
						c0.347,0,0.627,0.295,0.627,0.658c-0.003,1.307-0.007,2.614-0.011,3.921C213.483,364.979,213.201,365.274,212.854,365.274z"/>
					<path style="fill:#282F3A;" d="M212.752,374.34c-0.004,0-0.008,0-0.013,0c-0.348,0-0.627-0.295-0.623-0.658
						c0.013-1.307,0.025-2.614,0.036-3.921c0.003-0.364,0.287-0.659,0.634-0.658c0.004,0,0.008,0,0.013,0
						c0.347,0,0.627,0.295,0.624,0.658c-0.01,1.307-0.022,2.614-0.034,3.921C213.385,374.045,213.1,374.34,212.752,374.34z"/>
				</g>
				<g>
					<path style="fill:#282F3A;" d="M286.882,365.274c-0.004,0-0.008,0-0.013,0c-0.347,0-0.629-0.295-0.631-0.659
						c-0.005-1.307-0.008-2.614-0.011-3.921c-0.001-0.364,0.28-0.658,0.627-0.658c0.004,0,0.008,0,0.013,0
						c0.347,0,0.628,0.295,0.629,0.658c0.003,1.307,0.007,2.614,0.012,3.921C287.509,364.979,287.229,365.274,286.882,365.274z"/>
					<path style="fill:#282F3A;" d="M286.982,374.34c-0.004,0-0.008,0-0.013,0c-0.348,0-0.633-0.295-0.636-0.658
						c-0.012-1.307-0.024-2.614-0.034-3.921c-0.003-0.364,0.277-0.659,0.624-0.658c0.004,0,0.008,0,0.013,0
						c0.348,0,0.631,0.295,0.634,0.658c0.011,1.307,0.022,2.614,0.035,3.921C287.609,374.045,287.33,374.34,286.982,374.34z"/>
				</g>
			</g>
			<g>
				<path style="fill:#282F3A;" d="M265.579,356.172h-31.005c-0.762-6.338-0.519-4.314-1.281-10.652
					c11.037-2.605,22.53-2.605,33.567,0C266.098,351.858,266.342,349.834,265.579,356.172z"/>
				<path style="fill:#3A454F;" d="M265.579,356.172c0.762-6.338,0.519-4.314,1.281-10.652c-5.518-1.302-11.151-1.953-16.783-1.953
					v12.606H265.579z"/>
			</g>
                      

        <g>
</g>
</g>
</svg>