<?xml version="1.0" encoding="utf-8"?>
<!-- Generator: Adobe Illustrator 27.5.0, SVG Export Plug-In . SVG Version: 6.00 Build 0)  -->
<svg version="1.1" xmlns="http://www.w3.org/2000/svg" xmlns:xlink="http://www.w3.org/1999/xlink" x="0px" y="0px"
	 viewBox="330 40 100 210" style="enable-background:new 0 0 500 500; --fillColor: #F5B339; --fillColor-light: #FFDD3E; transition: --fillColor 0.5s ease, --fillColor-light 0.5s ease; --fillColor: #F5B339; --fillColor-light: #FFDD3E; transition: --fillColor 0.5s ease, --fillColor-light 0.5s ease;" xml:space="preserve">

<defs>
  <filter id="cadre-noir" x="-25%" y="-25%" width="150%" height="150%">
    <feGaussianBlur in="SourceAlpha" stdDeviation="2" result="blur"/>
    <feComponentTransfer in="blur" result="sharpened">
      <feFuncA type="linear" slope="30" intercept="-5"/>
    </feComponentTransfer>
    <feFlood flood-color="#000000" flood-opacity="1" result="pureBlack"/>
    <feComposite in="pureBlack" in2="sharpened" operator="in" result="outline"/>
    <feMerge>
      <feMergeNode in="outline"/>
      <feMergeNode in="SourceGraphic"/>
    </feMerge>
  </filter>
</defs>
<g filter="url(#cadre-noir)">


		<path style="fill:var(--fillColor);" d="M414.611,91.511c0-18.646-1.045-26.318-5.769-31.161s-23.552-8.242-31.52-8.242
				c-7.968,0-26.796,3.399-31.52,8.242c-4.724,4.843-5.769,11.572-5.769,31.161c0,26.831-3.177,127.284,4.961,134.028
				c8.138,6.743,24.141,7.013,32.328,7.013s24.191-0.27,32.328-7.013C417.788,218.795,414.611,118.342,414.611,91.511z"/>
			<path style="fill:var(--fillColor-light);" d="M411.406,95.739c0-18.05-0.955-24.722-5.273-29.149c-4.318-4.427-21.527-6.24-28.811-6.24
				c-7.284,0-24.493,1.813-28.811,6.24c-4.318,4.427-5.273,9.104-5.273,29.149c0,4.172,0.472,10.453,1.704,16.646
				c2.304,5.255,3.542,13.944,4.402,22.406c-0.984,1.379-1.563,4.101-1.563,6.981c-1.302,3.934-0.33,12.247,0,17.376
				c0.018,0.281-0.018,1.173,0,1.453c0,0-0.778,17.714,0,25.534c0.188,1.892,0.619,4.511,0.948,5.098
				c0.271,2.402-2.971,12.426-2.634,14.272c0.677,3.704,0.636,12.159,1.677,13.023c7.438,6.164,22.066,6.41,29.55,6.41
				c7.484,0,22.112-0.247,29.55-6.41c1.042-0.863,1-9.319,1.677-13.023c0.337-1.845-2.904-11.87-2.634-14.272
				c0.507-1.387,0.759-3.206,0.948-5.098c0.778-7.819,0-25.534,0-25.534c0.018-0.28-0.018-1.172,0-1.453
				c0.33-5.13,1.302-13.442,0-17.376c0-2.88-0.579-5.602-1.563-6.981c0.86-8.462,2.098-17.151,4.402-22.406
				C410.934,106.191,411.406,99.911,411.406,95.739z"/>
			<g>
				<path style="fill:#282F3A;" d="M347.781,159.148v-18.24l-4.961-26.738c-0.991,9.593-1.064,28.213-0.874,44.978H347.781z"/>
				<path style="fill:#282F3A;" d="M341.963,160.601c0.216,17.535,0.705,32.662,0.705,32.662l5.113-7.128v-25.534H341.963z"/>
			</g>
			<path style="fill:#282F3A;" d="M377.322,102.512c0,0-18.622-0.238-32.38,9.873l4.402,22.406c0,0,7.571-6.467,27.978-6.467
				c20.407,0,27.978,6.467,27.978,6.467l4.402-22.406C395.944,102.274,377.322,102.512,377.322,102.512z"/>
			<g>
				<path style="fill:#3A454F;" d="M406.863,159.148v-18.24l4.961-26.738c0.99,9.593,1.064,28.213,0.874,44.978H406.863z"/>
				<path style="fill:#3A454F;" d="M412.681,160.601c-0.216,17.535-0.705,32.662-0.705,32.662l-5.113-7.128v-25.534H412.681z"/>
			</g>
			<path style="fill:#282F3A;" d="M405.915,191.233c-6.939,1.902-50.248,1.902-57.187,0c0,0-3.269,8.636-2.634,14.272
				c4.698,2.863,14.647,6.501,31.227,6.501c16.58,0,26.53-3.638,31.227-6.501C409.184,199.869,405.915,191.233,405.915,191.233z"/>
			<g>
				<path style="fill:var(--fillColor-light);" d="M341.092,119.199l-7.729,1.908c-0.699,0.173-1.359-0.433-1.244-1.16
					c0.225-1.416,1.04-3.449,3.789-4.233C340.312,114.455,341.092,119.199,341.092,119.199z"/>
				<path style="fill:var(--fillColor-light);" d="M413.552,119.199l7.729,1.908c0.699,0.173,1.359-0.433,1.244-1.16
					c-0.225-1.416-1.04-3.449-3.789-4.233C414.332,114.455,413.552,119.199,413.552,119.199z"/>
			</g>
			<path style="fill:#3A454F;" d="M405.3,134.791l4.402-22.406c-13.758-10.111-32.38-9.873-32.38-9.873v25.812
				C397.729,128.323,405.3,134.791,405.3,134.791z"/>
			<path style="fill:#3A454F;" d="M405.915,191.233c-0.234,0.064-0.488,0.121-0.754,0.173c-0.071,0.014-0.162,0.027-0.237,0.04
				c-0.157,0.028-0.309,0.057-0.476,0.081c-4.762,0.755-15.936,1.133-27.127,1.133v19.346c16.58,0,26.53-3.638,31.227-6.501
				C409.184,199.869,405.915,191.233,405.915,191.233z"/>
			<path style="fill:#282F3A;" d="M385.078,230.375c-5.168,0.414-10.346,0.414-15.513,0c-0.721-0.057-1.414,0.785-1.568,1.918
				c3.543,0.232,6.805,0.259,9.325,0.259c2.52,0,5.782-0.027,9.325-0.259C386.492,231.159,385.8,230.317,385.078,230.375z"/>
			<g>
				<path style="fill:#DD3E3E;" d="M358.444,230.318c0.002-0.01,0.004-0.019,0.006-0.029c0.168-0.781-0.31-1.545-1.069-1.73
					c-2.26-0.549-4.503-1.193-6.724-1.932c-0.742-0.247-1.538,0.152-1.791,0.908c-0.003,0.009-0.006,0.019-0.009,0.028
					c-0.046,0.137-0.047,0.275-0.052,0.413c2.76,1.396,5.945,2.366,9.242,3.04C358.231,230.825,358.384,230.599,358.444,230.318z"/>
				<path style="fill:#DD3E3E;" d="M405.777,227.536c-0.253-0.757-1.049-1.155-1.791-0.908c-2.221,0.739-4.465,1.383-6.724,1.932
					c-0.759,0.185-1.237,0.949-1.069,1.73c0.002,0.01,0.004,0.019,0.006,0.029c0.06,0.281,0.213,0.507,0.398,0.699
					c3.296-0.673,6.481-1.644,9.242-3.04c-0.006-0.138-0.007-0.277-0.052-0.413C405.784,227.554,405.78,227.545,405.777,227.536z"/>
			</g>
			<path style="fill:#282F3A;" d="M395.173,56.321c0.964,0.21,1.943-0.404,2.173-1.363c0.002-0.008,0.004-0.016,0.006-0.024
				c0.091-0.378-0.131-0.762-0.507-0.861c-6.961-1.837-14.995-2.936-19.524-2.936c-4.528,0-12.563,1.099-19.523,2.935
				c-0.375,0.099-0.598,0.484-0.507,0.861c0.002,0.009,0.004,0.018,0.006,0.027c0.23,0.958,1.209,1.57,2.172,1.361
				c5.856-1.274,11.893-2.565,17.852-2.571C383.333,53.744,389.266,55.035,395.173,56.321z"/>
			<path style="fill:var(--fillColor);" d="M390.483,90.334c-0.151,0.751-0.854,1.304-1.654,1.304h-23.015c-0.799,0-1.503-0.553-1.654-1.304
				l-3-14.908l2.489,16.705c0.123,0.825,0.831,1.436,1.666,1.436h24.013c0.834,0,1.543-0.611,1.666-1.436l2.489-16.705
				L390.483,90.334z"/>
			<path style="fill:var(--fillColor);" d="M390.56,151.799l-26.627-4.78l-5.93,8.952c-0.522,0.789,0.043,1.842,0.989,1.842h24.518
				c0.415,0,0.815-0.157,1.12-0.439C386.111,156.005,390.55,151.891,390.56,151.799z"/>
			<path style="fill:#FFFFFF;" d="M389.837,152.157h-25.03c-0.508,0-0.92-0.412-0.92-0.92v-3.95c0-0.508,0.412-0.92,0.92-0.92h25.03
				c0.508,0,0.92,0.412,0.92,0.92v3.95C390.757,151.745,390.345,152.157,389.837,152.157z"/>
			<path style="fill:#F2E5C0;" d="M386.381,150.528h-18.118c-0.352,0-0.638-0.286-0.638-0.638v-1.257
				c0-0.352,0.286-0.638,0.638-0.638h18.118c0.352,0,0.638,0.286,0.638,0.638v1.257
				C387.018,150.242,386.733,150.528,386.381,150.528z"/>
			<g>
				<path style="fill:#282F3A;" d="M362.623,172.576h-2.96v-2.04h8.323v2.04h-2.944v8.685h-2.419V172.576z"/>
				<path style="fill:#282F3A;" d="M375.69,178.712H372.4l-0.658,2.549h-2.467l3.372-10.725h2.895l3.372,10.725h-2.566
					L375.69,178.712z M375.196,176.82l-0.263-0.987c-0.296-1.069-0.576-2.336-0.872-3.454h-0.066
					c-0.246,1.135-0.544,2.385-0.84,3.454l-0.262,0.987H375.196z"/>
				<path style="fill:#282F3A;" d="M383.478,175.751l-2.797-5.215h2.714l0.922,2.023c0.246,0.494,0.477,1.053,0.79,1.728h0.066
					c0.246-0.675,0.461-1.234,0.674-1.728l0.856-2.023h2.582l-2.781,5.33l2.961,5.395h-2.698l-1.053-2.188
					c-0.28-0.559-0.526-1.102-0.806-1.76h-0.066c-0.263,0.658-0.493,1.201-0.741,1.76l-1.003,2.188h-2.582L383.478,175.751z"/>
				<path style="fill:#282F3A;" d="M392.545,170.536h2.435v10.725h-2.435V170.536z"/>
			</g>
			<g>
				<path style="fill:#FFFFFF;" d="M347.256,60.589c-0.374,0.15-0.749,0.301-1.123,0.451c2.926-1.177,5.857-2.348,8.792-3.513
					c0.645-0.256,0.961-0.985,0.704-1.629c-0.003-0.008-0.006-0.016-0.009-0.024c-0.028-0.071-0.081-0.121-0.12-0.184
					c-3.602,1.08-6.74,2.364-8.688,3.796C346.96,59.854,347.108,60.221,347.256,60.589z"/>
				<path style="fill:#EC9100;" d="M346.133,61.04c0.374-0.151,0.748-0.301,1.123-0.451c-0.148-0.368-0.296-0.735-0.444-1.102
					c-0.384,0.282-0.724,0.57-1.01,0.863c-0.216,0.222-0.417,0.452-0.617,0.683C345.477,61.154,345.816,61.168,346.133,61.04z"/>
				<path style="fill:#FFFFFF;" d="M399.847,57.285c2.874,1.31,5.742,2.626,8.606,3.948c-0.366-0.169-0.732-0.338-1.099-0.507
					c0.182-0.395,0.365-0.79,0.547-1.185c-1.931-1.446-5.075-2.742-8.696-3.832C398.977,56.32,399.243,57.01,399.847,57.285z"/>
				<path style="fill:#EC9100;" d="M407.901,59.541c-0.182,0.395-0.365,0.79-0.547,1.185c0.366,0.169,0.733,0.338,1.099,0.507
					c0.378,0.174,0.786,0.126,1.124-0.061c-0.236-0.282-0.478-0.558-0.735-0.822C408.574,60.075,408.255,59.806,407.901,59.541z"/>
			</g>
			<g>
				<g>
					<path style="fill:#282F3A;" d="M339.429,155.918h-0.013c-0.364,0-0.658-0.295-0.658-0.658v-3.92
						c0-0.364,0.295-0.658,0.658-0.658h0.013c0.363,0,0.658,0.295,0.658,0.658v3.92
						C340.087,155.623,339.792,155.918,339.429,155.918z"/>
					<path style="fill:#282F3A;" d="M339.429,170.49h-0.013c-0.364,0-0.658-0.295-0.658-0.658v-3.92
						c0-0.364,0.295-0.658,0.658-0.658h0.013c0.363,0,0.658,0.295,0.658,0.658v3.92C340.087,170.196,339.792,170.49,339.429,170.49z
						"/>
				</g>
				<g>
					<path style="fill:#282F3A;" d="M415.228,155.918h-0.013c-0.363,0-0.658-0.295-0.658-0.658v-3.92
						c0-0.364,0.295-0.658,0.658-0.658h0.013c0.364,0,0.658,0.295,0.658,0.658v3.92
						C415.886,155.623,415.592,155.918,415.228,155.918z"/>
					<path style="fill:#282F3A;" d="M415.228,170.49h-0.013c-0.363,0-0.658-0.295-0.658-0.658v-3.92
						c0-0.364,0.295-0.658,0.658-0.658h0.013c0.364,0,0.658,0.295,0.658,0.658v3.92C415.886,170.196,415.592,170.49,415.228,170.49z
						"/>
			
			 </g>
                        </g>


        <g>
</g>
</g>
</svg>
