<svg xmlns="http://www.w3.org/2000/svg" xmlns:xlink="http://www.w3.org/1999/xlink" version="1.1" x="0px" y="0px" viewBox="326 -483 144 443" style="enable-background:new 0 0 500 500;" xml:space="preserve">

<defs>
  <filter id="cadre-noir" x="-25%" y="-25%" width="150%" height="150%">
    <feGaussianBlur in="SourceAlpha" stdDeviation="2" result="blur"/>
    <feComponentTransfer in="blur" result="sharpened">
      <feFuncA type="linear" slope="30" intercept="-5"/>
    </feComponentTransfer>
    <feFlood flood-color="#000000" flood-opacity="1" result="pureBlack"/>
    <feComposite in="pureBlack" in2="sharpened" operator="in" result="outline"/>
    <feMerge>
      <feMergeNode in="outline"/>
      <feMergeNode in="SourceGraphic"/>
    </feMerge>
  </filter>
</defs>
<g >

<g transform="rotate(-90)">
<g xmlns="http://www.w3.org/2000/svg">
		<g>
			<g>
				<path fill="#3B464E" d="M411.999,346.414v12.272h-31.831v-12.272c0-1.208,0.979-2.187,2.187-2.187h27.457      C411.02,344.227,411.999,345.207,411.999,346.414z"/>
				
					<rect x="390.502" y="337.19" transform="matrix(6.123234e-17 -1 1 6.123234e-17 42.9781 749.1889)" fill="#222B32" width="11.163" height="31.831"/>
			</g>
			<g>
				<path fill="#3B464E" d="M411.999,450.411v-12.272h-31.831v12.272c0,1.208,0.979,2.187,2.187,2.187h27.457      C411.02,452.598,411.999,451.618,411.999,450.411z"/>
				
					<rect x="390.502" y="427.804" transform="matrix(-1.836970e-16 1 -1 -1.836970e-16 839.803 47.6361)" fill="#222B32" width="11.163" height="31.831"/>
			</g>
		</g>
		<path fill="#FFFFFF" d="M377.132,347.03h66.943c8.865,0,16.462,5.441,19.628,13.162c1.02,2.482,1.58,5.194,1.58,8.041    v60.353c0,2.846-0.56,5.559-1.58,8.041c-3.166,7.727-10.764,13.168-19.628,13.168h-66.943c-3.351,0-6.068-2.717-6.068-6.068    v-90.628C371.064,349.748,373.781,347.03,377.132,347.03z"/>
		<path fill="#FFFFFF" d="M457.427,373.266v50.291c0,9.759-7.911,17.67-17.67,17.67h-55.784    c-2.792,0-5.055-2.263-5.055-5.055v-75.521c0-2.792,2.263-5.055,5.055-5.055h55.784    C449.516,355.595,457.427,363.507,457.427,373.266z"/>
		<g>
			<g>
				<path fill="#3B464E" d="M130.644,341.815v13.432H98.812v-13.432c0-1.259,1.021-2.28,2.28-2.28h27.272      C129.623,339.535,130.644,340.556,130.644,341.815z"/>
				
					<rect x="108.664" y="333.267" transform="matrix(6.123234e-17 -1 1 6.123234e-17 -234.4543 463.9106)" fill="#222B32" width="12.129" height="31.831"/>
			</g>
			<g>
				<path fill="#3B464E" d="M130.644,455.01v-13.432H98.812v13.432c0,1.259,1.021,2.28,2.28,2.28h27.272      C129.623,457.289,130.644,456.269,130.644,455.01z"/>
				
					<rect x="108.664" y="431.727" transform="matrix(-1.836970e-16 1 -1 -1.836970e-16 562.3707 332.9145)" fill="#222B32" width="12.129" height="31.831"/>
			</g>
			<g>
				<g>
					<path fill="#3B464E" d="M167.551,341.815v13.432H135.72v-13.432c0-1.259,1.021-2.28,2.28-2.28h27.272       C166.531,339.535,167.551,340.556,167.551,341.815z"/>
					
						<rect x="145.571" y="333.267" transform="matrix(6.123234e-17 -1 1 6.123234e-17 -197.5467 500.8181)" fill="#222B32" width="12.129" height="31.831"/>
				</g>
				<g>
					<path fill="#3B464E" d="M167.551,455.01v-13.432H135.72v13.432c0,1.259,1.021,2.28,2.28,2.28h27.272       C166.531,457.289,167.551,456.269,167.551,455.01z"/>
					
						<rect x="145.571" y="431.727" transform="matrix(-1.836970e-16 1 -1 -1.836970e-16 599.2783 296.0069)" fill="#222B32" width="12.129" height="31.831"/>
				</g>
			</g>
		</g>
		<path fill="#222B32" d="M55.56,343.118v110.589l0,0c-6.308,0-11.422-5.114-11.422-11.422V354.54    C44.138,348.232,49.252,343.118,55.56,343.118L55.56,343.118z"/>
		<path fill="#3B464E" d="M55.56,348.061v100.702h0.376c4.327,0,7.834-3.507,7.834-7.834v-85.034    c0-4.327-3.507-7.834-7.834-7.834H55.56z"/>
		<g>
			<g>
				<path fill="#3B464E" d="M306.731,341.815v13.432H274.9v-13.432c0-1.259,1.021-2.28,2.28-2.28h27.272      C305.711,339.535,306.731,340.556,306.731,341.815z"/>
				
					<rect x="284.751" y="333.267" transform="matrix(6.123234e-17 -1 1 6.123234e-17 -58.3668 639.998)" fill="#222B32" width="12.129" height="31.831"/>
			</g>
			<g>
				<path fill="#3B464E" d="M306.731,455.01v-13.432H274.9v13.432c0,1.259,1.021,2.28,2.28,2.28h27.272      C305.711,457.289,306.731,456.269,306.731,455.01z"/>
				
					<rect x="284.751" y="431.727" transform="matrix(-1.836970e-16 1 -1 -1.836970e-16 738.4582 156.827)" fill="#222B32" width="12.129" height="31.831"/>
			</g>
			<g>
				<g>
					<path fill="#3B464E" d="M343.639,341.815v13.432h-31.831v-13.432c0-1.259,1.021-2.28,2.28-2.28h27.272       C342.618,339.535,343.639,340.556,343.639,341.815z"/>
					
						<rect x="321.658" y="333.267" transform="matrix(6.123234e-17 -1 1 6.123234e-17 -21.4593 676.9055)" fill="#222B32" width="12.129" height="31.831"/>
				</g>
				<g>
					<path fill="#3B464E" d="M343.639,455.01v-13.432h-31.831v13.432c0,1.259,1.021,2.28,2.28,2.28h27.272       C342.618,457.289,343.639,456.269,343.639,455.01z"/>
					
						<rect x="321.658" y="431.727" transform="matrix(-1.836970e-16 1 -1 -1.836970e-16 775.3657 119.9195)" fill="#222B32" width="12.129" height="31.831"/>
				</g>
			</g>
		</g>
		<path fill="#FFFFFF" d="M454.367,375.226v46.371c0,8.998-7.294,16.293-16.293,16.293H386.64    c-2.574,0-4.661-2.087-4.661-4.661v-69.634c0-2.574,2.087-4.661,4.661-4.661h51.435    C447.073,358.933,454.367,366.228,454.367,375.226z"/>
		<path fill="#222B32" d="M367.051,363.794v69.235c0,2.684-2.176,4.861-4.861,4.861l0,0c-2.685,0-4.861-2.176-4.861-4.861    v-69.235c0-2.685,2.176-4.861,4.861-4.861l0,0C364.875,358.933,367.051,361.109,367.051,363.794z"/>
		<path fill="var(--fillColor-light)" d="M80.963,347.03h264.331c6.647,0,12.036,5.389,12.036,12.036v78.693    c0,6.647-5.389,12.036-12.036,12.036H81.613c-27.807,0-51.074-21.84-51.998-49.631C28.646,370.984,52.007,347.03,80.963,347.03z"/>
		
			<rect x="328.505" y="391.543" transform="matrix(6.123234e-17 -1 1 6.123234e-17 -34.2137 762.6085)" fill="#3B464E" width="71.385" height="13.736"/>
		
			<rect x="335.745" y="391.543" transform="matrix(6.123234e-17 -1 1 6.123234e-17 -34.2137 762.6085)" fill="#222B32" width="56.906" height="13.736"/>
		
			<rect x="339.476" y="394.681" transform="matrix(6.123234e-17 -1 1 6.123234e-17 -34.2137 762.6085)" fill="#637079" width="49.443" height="7.46"/>
		<g>
			
				<rect x="360.478" y="381.9" transform="matrix(6.123234e-17 -1 1 6.123234e-17 -20.5563 748.951)" fill="#7C8B96" width="7.438" height="5.707"/>
			
				<rect x="360.478" y="391.005" transform="matrix(6.123234e-17 -1 1 6.123234e-17 -29.6612 758.056)" fill="#7C8B96" width="7.438" height="5.707"/>
			
				<rect x="360.478" y="400.11" transform="matrix(6.123234e-17 -1 1 6.123234e-17 -38.7662 767.1609)" fill="#7C8B96" width="7.438" height="5.707"/>
			
				<rect x="360.478" y="409.215" transform="matrix(6.123234e-17 -1 1 6.123234e-17 -47.8711 776.2658)" fill="#7C8B96" width="7.438" height="5.707"/>
		</g>
		<path fill="#222B32" d="M407.625,445.721h29.563c1.95,0,3.53,1.58,3.53,3.53v0.543h-36.623v-0.543    C404.095,447.301,405.675,445.721,407.625,445.721z"/>
		<path fill="#222B32" d="M397.763,445.721c1.95,0,3.53,1.58,3.53,3.53v0.543h-7.06v-0.543c0-0.975,0.398-1.855,1.037-2.493    C395.909,446.119,396.788,445.721,397.763,445.721z"/>
		<path fill="#222B32" d="M404.095,347.03h36.623v0.263c0,1.95-1.58,3.53-3.53,3.53h-29.563c-1.95,0-3.53-1.58-3.53-3.53    V347.03z"/>
		<path fill="#3B464E" d="M467.864,374.284v46.589c0,1.425-1.156,2.581-2.581,2.581l0,0c-1.425,0-2.581-1.156-2.581-2.581    v-46.589c0-1.425,1.155-2.581,2.581-2.581l0,0C466.709,371.703,467.864,372.858,467.864,374.284z"/>
		<path fill="#222B32" d="M394.233,347.03h7.06v0.263c0,0.975-0.398,1.855-1.037,2.493c-0.639,0.639-1.518,1.037-2.493,1.037    c-1.95,0-3.53-1.58-3.53-3.53V347.03z"/>
		<path fill="#222B32" d="M463.703,360.192c1.02,2.482,1.58,5.194,1.58,8.041v60.353c0,2.846-0.56,5.559-1.58,8.041    c-1.754-11.106-2.768-24.201-2.768-38.215C460.935,384.393,461.949,371.304,463.703,360.192z"/>
		<g>
			<g>
				<path fill="#FFFFFF" d="M450.134,452.1v9.235c0,0.719-0.583,1.302-1.302,1.302h-0.964c-0.719,0-1.302-0.583-1.302-1.302      V452.1c0-0.719,0.583-1.302,1.302-1.302h0.964C449.551,450.798,450.134,451.381,450.134,452.1z"/>
				<path fill="#FFFFFF" d="M451.778,446.739v8.655c0,0.731-0.592,1.324-1.323,1.324l0,0c-0.731,0-1.324-0.592-1.324-1.324      v-8.655c0-0.731,0.593-1.324,1.324-1.324l0,0C451.186,445.415,451.778,446.008,451.778,446.739z"/>
			</g>
			<g>
				<path fill="#FFFFFF" d="M450.134,344.722v-9.235c0-0.719-0.583-1.302-1.302-1.302h-0.964      c-0.719,0-1.302,0.583-1.302,1.302v9.235c0,0.719,0.583,1.302,1.302,1.302h0.964      C449.551,346.024,450.134,345.441,450.134,344.722z"/>
				<path fill="#FFFFFF" d="M451.778,350.083v-8.655c0-0.731-0.592-1.323-1.323-1.323l0,0c-0.731,0-1.324,0.593-1.324,1.323      v8.655c0,0.731,0.593,1.324,1.324,1.324l0,0C451.186,351.407,451.778,350.814,451.778,350.083z"/>
			</g>
		</g>
		<g>
			<path fill="#D32F2F" d="M376.748,441.571c1.062,0,1.924,0.861,1.924,1.923c0,1.062-0.861,1.924-1.924,1.924     c-1.062,0-1.923-0.861-1.923-1.924C374.824,442.432,375.685,441.571,376.748,441.571z"/>
			<path fill="#D32F2F" d="M374.829,351.888c-0.079-1.06,0.716-1.982,1.776-2.061c1.059-0.079,1.982,0.716,2.061,1.776     c0.079,1.059-0.716,1.982-1.776,2.061C375.831,353.743,374.908,352.948,374.829,351.888z"/>
		</g>
		<g>
			<rect x="297.094" y="347.03" fill="var(--fillColor)" width="5.452" height="102.765"/>
			<rect x="233.721" y="347.03" fill="var(--fillColor)" width="5.452" height="102.765"/>
			<rect x="170.353" y="347.03" fill="var(--fillColor)" width="5.446" height="102.765"/>
			<rect x="106.98" y="347.03" fill="var(--fillColor)" width="5.446" height="102.765"/>
		</g>
		<g>
			
				<ellipse transform="matrix(0.1593 -0.9872 0.9872 0.1593 -275.6357 475.4693)" fill="#3B464E" cx="141.36" cy="399.578" rx="17.304" ry="17.304"/>
			
				<ellipse transform="matrix(0.1595 -0.9872 0.9872 0.1595 -275.6466 475.4092)" fill="#222B32" cx="141.36" cy="399.578" rx="14.425" ry="14.425"/>
			
				<ellipse transform="matrix(0.9227 -0.3856 0.3856 0.9227 -143.13 85.3955)" fill="#637079" cx="141.36" cy="399.578" rx="12.236" ry="12.236"/>
			<path fill="#929FA9" d="M143.688,382.271v5.762c0,1.286-1.042,2.328-2.328,2.328l0,0c-1.286,0-2.328-1.042-2.328-2.328     v-5.762c0-1.286,1.042-2.328,2.328-2.328l0,0C142.645,379.943,143.688,380.986,143.688,382.271z"/>
		</g>
		<g>
			<circle fill="#3B464E" cx="269.307" cy="399.578" r="17.304"/>
			
				<ellipse transform="matrix(0.1595 -0.9872 0.9872 0.1595 -168.1022 601.7197)" fill="#222B32" cx="269.307" cy="399.578" rx="14.425" ry="14.425"/>
			
				<ellipse transform="matrix(0.9227 -0.3856 0.3856 0.9227 -133.2377 134.7265)" fill="#637079" cx="269.307" cy="399.578" rx="12.236" ry="12.236"/>
			<path fill="#929FA9" d="M271.635,382.271v5.762c0,1.286-1.042,2.328-2.328,2.328l0,0c-1.286,0-2.328-1.042-2.328-2.328     v-5.762c0-1.286,1.042-2.328,2.328-2.328l0,0C270.593,379.943,271.635,380.986,271.635,382.271z"/>
		</g>
		<path fill="var(--fillColor)" d="M332.172,432.376L332.172,432.376c0,3.044-2.468,5.513-5.513,5.513H79.137    c-3.045,0-5.513-2.468-5.513-5.513l0,0c0-3.044,2.468-5.513,5.513-5.513h247.522C329.704,426.864,332.172,429.332,332.172,432.376    z"/>
		<path fill="var(--fillColor-light)" d="M139.032,364.672L139.032,364.672c0,3.044-2.468,5.513-5.513,5.513H79.137    c-3.045,0-5.513-2.468-5.513-5.513l0,0c0-3.045,2.468-5.513,5.513-5.513h54.382C136.564,359.159,139.032,361.627,139.032,364.672z    "/>
		<path fill="var(--fillColor-light)" d="M264.266,364.672L264.266,364.672c0,3.044-2.468,5.513-5.513,5.513h-54.382    c-3.044,0-5.513-2.468-5.513-5.513l0,0c0-3.045,2.468-5.513,5.513-5.513h54.382C261.798,359.159,264.266,361.627,264.266,364.672z    "/>
		<path fill="var(--fillColor-light)" d="M299.82,364.672L299.82,364.672c0,3.044-2.468,5.513-5.513,5.513h-13.895    c-3.044,0-5.513-2.468-5.513-5.513l0,0c0-3.045,2.468-5.513,5.513-5.513h13.895C297.352,359.159,299.82,361.627,299.82,364.672z"/>
	</g>
</g>
</g>
</svg>