<?xml version="1.0" encoding="utf-8"?>
<svg version="1.1" xmlns="http://www.w3.org/2000/svg" xmlns:xlink="http://www.w3.org/1999/xlink" x="0px" y="0px"
	 viewBox="360 0 140 340" style="enable-background:new 0 0 500 500; --fillColor: #FCC23F; --fillColor-light: #E5A82E; transition: --fillColor 0.5s ease, --fillColor-light 0.5s ease;" xml:space="preserve">

<defs>
  <filter id="cadre-noir" x="-25%" y="-25%" width="150%" height="150%">
    <feGaussianBlur in="SourceAlpha" stdDeviation="2" result="blur"/>
    <feComponentTransfer in="blur" result="sharpened">
      <feFuncA type="linear" slope="30" intercept="-5"/>
    </feComponentTransfer>
    <feFlood flood-color="#000000" flood-opacity="1" result="pureBlack"/>
    <feComposite in="pureBlack" in2="sharpened" operator="in" result="outline"/>
    <feMerge>
      <feMergeNode in="outline"/>
      <feMergeNode in="SourceGraphic"/>
    </feMerge>
  </filter>
</defs>
<g filter="url(#cadre-noir)">

    <g xmlns="http://www.w3.org/2000/svg">
			<g>
				<g>
					<path style="fill:#3B464E;" d="M474.155,170.381h-11.066v-26.226h11.066c1.037,0,1.878,0.841,1.878,1.878v22.469       C476.033,169.54,475.192,170.381,474.155,170.381z"/>
				</g>
				<g>
					<path style="fill:#3B464E;" d="M380.895,170.381h11.066v-26.226h-11.066c-1.037,0-1.878,0.841-1.878,1.878v22.469       C379.017,169.54,379.858,170.381,380.895,170.381z"/>
					
						<rect x="381.968" y="144.155" transform="matrix(-1 -1.224647e-16 1.224647e-16 -1 773.9299 314.5362)" style="fill:#222B32;" width="9.993" height="26.226"/>
				</g>
			</g>
			<g>
				<g>
					<path style="fill:#3B464E;" d="M474.155,198.873h-11.066v-26.226h11.066c1.037,0,1.878,0.841,1.878,1.878v22.469       C476.033,198.032,475.192,198.873,474.155,198.873z"/>
					<rect x="463.089" y="172.648" style="fill:#222B32;" width="9.993" height="26.226"/>
				</g>
				<g>
					<path style="fill:#3B464E;" d="M380.895,198.873h11.066v-26.226h-11.066c-1.037,0-1.878,0.841-1.878,1.878v22.469       C379.017,198.032,379.858,198.873,380.895,198.873z"/>
					
						<rect x="381.968" y="172.648" transform="matrix(-1 -1.224647e-16 1.224647e-16 -1 773.9299 371.5208)" style="fill:#222B32;" width="9.993" height="26.226"/>
				</g>
			</g>
		</g>

  <g xmlns="http://www.w3.org/2000/svg">
			<g>
				<g>
					<path style="fill:#3B464E;" d="M474.155,269.945h-11.066V243.72h11.066c1.037,0,1.878,0.841,1.878,1.878v22.469       C476.033,269.104,475.192,269.945,474.155,269.945z"/>
					<rect x="463.089" y="243.72" style="fill:#222B32;" width="9.993" height="26.226"/>
				</g>
				<g>
					<path style="fill:#3B464E;" d="M380.895,269.945h11.066V243.72h-11.066c-1.037,0-1.878,0.841-1.878,1.878v22.469       C379.017,269.104,379.858,269.945,380.895,269.945z"/>
					
						<rect x="381.968" y="243.72" transform="matrix(-1 -1.224647e-16 1.224647e-16 -1 773.9299 513.6649)" style="fill:#222B32;" width="9.993" height="26.226"/>
				</g>
			</g>
			<g>
				<g>
					<path style="fill:#3B464E;" d="M474.155,298.438h-11.066v-26.225h11.066c1.037,0,1.878,0.841,1.878,1.878v22.469       C476.033,297.597,475.192,298.438,474.155,298.438z"/>
					<rect x="463.089" y="272.212" style="fill:#222B32;" width="9.993" height="26.226"/>
				</g>
				<g>
					<path style="fill:#3B464E;" d="M380.895,298.438h11.066v-26.225h-11.066c-1.037,0-1.878,0.841-1.878,1.878v22.469       C379.017,297.597,379.858,298.438,380.895,298.438z"/>
					
						<rect x="391.968" y="272.212" transform="matrix(-1 -1.224647e-16 1.224647e-16 -1 773.9299 570.6495)" style="fill:#222B32;" width=".993" height="26.226"/>
		
<path style="fill:var(--fillColor);" d="M456.133,318.603h-57.218c-7.878,0-14.264-6.386-14.264-14.264V135.941
			c0-5.493,4.453-9.946,9.946-9.946h65.855c5.493,0,9.946,4.453,9.946,9.946v168.398
			C470.398,312.217,464.011,318.603,456.133,318.603z"/>
  
		<path style="fill:var(--fillColor);" d="M451.782,309.453h-48.516c-6.947,0-12.578-5.632-12.578-12.578v-152.96
			c0-4.844,3.927-8.77,8.77-8.77h56.132c4.844,0,8.77,3.927,8.77,8.77v152.96C464.361,303.822,458.729,309.453,451.782,309.453z"/>
		<g>
			<path style="fill:var(--fillColor-light);" d="M396.786,298.438L396.786,298.438c-1.187,0-2.149-0.962-2.149-2.149V147.749
				c0-0.878,0.711-1.589,1.589-1.589h1.119c0.878,0,1.589,0.712,1.589,1.589v148.539
				C398.934,297.476,397.972,298.438,396.786,298.438z"/>
			<path style="fill:var(--fillColor-light);" d="M409.081,298.438L409.081,298.438c-1.187,0-2.149-0.962-2.149-2.149V147.749
				c0-0.878,0.712-1.589,1.589-1.589h1.119c0.878,0,1.589,0.712,1.589,1.589v148.539
				C411.23,297.476,410.268,298.438,409.081,298.438z"/>
			<path style="fill:var(--fillColor-light);" d="M421.376,298.438L421.376,298.438c-1.187,0-2.149-0.962-2.149-2.149V147.749
				c0-0.878,0.712-1.589,1.589-1.589h1.119c0.878,0,1.589,0.712,1.589,1.589v148.539
				C423.525,297.476,422.563,298.438,421.376,298.438z"/>
			<path style="fill:var(--fillColor-light);" d="M433.672,298.438L433.672,298.438c-1.187,0-2.149-0.962-2.149-2.149V147.749
				c0-0.878,0.712-1.589,1.589-1.589h1.119c0.878,0,1.589,0.712,1.589,1.589v148.539
				C435.821,297.476,434.859,298.438,433.672,298.438z"/>
			<path style="fill:var(--fillColor-light);" d="M445.967,298.438L445.967,298.438c-1.187,0-2.149-0.962-2.149-2.149V147.749
				c0-0.878,0.711-1.589,1.589-1.589h1.119c0.878,0,1.589,0.712,1.589,1.589v148.539
				C448.116,297.476,447.154,298.438,445.967,298.438z"/>
			<path style="fill:var(--fillColor-light);" d="M458.263,298.438L458.263,298.438c-1.187,0-2.149-0.962-2.149-2.149V147.749
				c0-0.878,0.712-1.589,1.589-1.589h1.119c0.878,0,1.589,0.712,1.589,1.589v148.539
				C460.411,297.476,459.45,298.438,458.263,298.438z"/>
		</g>
		<g>
			<path style="fill:#222B32;" d="M405.519,119.815h44.012c1.707,0,3.09,1.383,3.09,3.09v0c0,1.706-1.383,3.09-3.09,3.09h-44.012
				c-1.706,0-3.09-1.383-3.09-3.09v0C402.43,121.198,403.813,119.815,405.519,119.815z"/>
			
				<rect x="404.836" y="117.263" transform="matrix(-1 -1.224647e-16 1.224647e-16 -1 855.0503 243.2574)" style="fill:#3B464E;" width="45.378" height="8.732"/>
			
				<rect x="409.438" y="117.263" transform="matrix(-1 -1.224647e-16 1.224647e-16 -1 855.0503 243.2574)" style="fill:#222B32;" width="36.174" height="8.732"/>
			<path style="fill:#637079;" d="M414.181,119.257h26.688c1.31,0,2.371,1.062,2.371,2.371l0,0c0,1.31-1.062,2.371-2.371,2.371
				h-26.688c-1.31,0-2.371-1.062-2.371-2.371l0,0C411.81,120.319,412.872,119.257,414.181,119.257z"/>
		</g>
		<g>
			<path style="fill:#D32F2F;" d="M460.958,35.785h-66.866c-3.622,0-5.811-3.994-3.878-7.057c3.173-5.028,8.778-8.367,15.161-8.367
				h0.239v10.29h43.818v-10.29h0.238c6.386,0,11.992,3.339,15.166,8.367C466.769,31.791,464.581,35.785,460.958,35.785z"/>
			<path style="fill:#D8E2E7;" d="M456.525,117.725h-58.001c-5.266,0-9.534-4.269-9.534-9.535V39.489
				c0-9.518,7.715-17.233,17.233-17.233h42.604c9.518,0,17.233,7.715,17.233,17.233v68.701
				C466.059,113.456,461.791,117.725,456.525,117.725z"/>
			
				<ellipse transform="matrix(0.661 -0.7503 0.7503 0.661 106.5782 338.1101)" style="fill:#E1EAEF;" cx="427.524" cy="51.09" rx="24.848" ry="24.848"/>
			<path style="fill:#222B32;" d="M461.747,81.184h-68.446V68.085c0-8.563,6.942-15.505,15.505-15.505h37.436
				c8.563,0,15.505,6.942,15.505,15.505V81.184z"/>
			<path style="fill:#E1EAEF;" d="M452.254,112.434h-49.459c-5.266,0-9.534-4.269-9.534-9.535V82.184
				c0-7.364,5.969-13.333,13.333-13.333h41.862c7.364,0,13.333,5.969,13.333,13.333v20.715
				C461.788,108.165,457.519,112.434,452.254,112.434z"/>
			<path style="fill:#222B32;" d="M449.91,22.256h-44.772v-0.979c0-1.301,1.055-2.356,2.356-2.356h40.06
				c1.301,0,2.356,1.055,2.356,2.356V22.256z"/>
			<g>
				<path style="fill:#E4EDF1;" d="M386.103,66.76h-8.362c-0.651,0-1.179,0.528-1.179,1.179v0.873c0,0.651,0.528,1.179,1.179,1.179
					h8.362c0.651,0,1.179-0.528,1.179-1.179v-0.873C387.281,67.287,386.754,66.76,386.103,66.76z"/>
				<path style="fill:#BEC9D2;" d="M390.957,65.271h-7.837c-0.662,0-1.198,0.536-1.198,1.198l0,0c0,0.662,0.536,1.198,1.198,1.198
					h7.837c0.662,0,1.198-0.536,1.198-1.198l0,0C392.156,65.807,391.619,65.271,390.957,65.271z"/>
			</g>
			<g>
				<path style="fill:#E4EDF1;" d="M468.946,66.76h8.362c0.651,0,1.179,0.528,1.179,1.179v0.873c0,0.651-0.528,1.179-1.179,1.179
					h-8.362c-0.651,0-1.179-0.528-1.179-1.179v-0.873C467.767,67.287,468.295,66.76,468.946,66.76z"/>
				<path style="fill:#BEC9D2;" d="M464.091,65.271h7.837c0.662,0,1.198,0.536,1.198,1.198l0,0c0,0.662-0.536,1.198-1.198,1.198
					h-7.837c-0.662,0-1.198-0.536-1.198-1.198l0,0C462.893,65.807,463.429,65.271,464.091,65.271z"/>
			</g>
			<g>
				<path style="fill:#CAD6DD;" d="M403.716,108.626L403.716,108.626c-1.304,0-2.361-1.057-2.361-2.361V81.64
					c0-1.304,1.057-2.36,2.361-2.36l0,0c1.304,0,2.361,1.057,2.361,2.36v24.625C406.076,107.569,405.02,108.626,403.716,108.626z"/>
				<path style="fill:#CAD6DD;" d="M411.652,108.626L411.652,108.626c-1.304,0-2.361-1.057-2.361-2.361V81.64
					c0-1.304,1.057-2.36,2.361-2.36l0,0c1.304,0,2.361,1.057,2.361,2.36v24.625C414.013,107.569,412.956,108.626,411.652,108.626z"
					/>
				<path style="fill:#CAD6DD;" d="M419.589,108.626L419.589,108.626c-1.304,0-2.361-1.057-2.361-2.361V81.64
					c0-1.304,1.057-2.36,2.361-2.36l0,0c1.304,0,2.361,1.057,2.361,2.36v24.625C421.949,107.569,420.892,108.626,419.589,108.626z"
					/>
				<path style="fill:#CAD6DD;" d="M427.525,108.626L427.525,108.626c-1.304,0-2.361-1.057-2.361-2.361V81.64
					c0-1.304,1.057-2.36,2.361-2.36l0,0c1.304,0,2.36,1.057,2.36,2.36v24.625C429.886,107.569,428.829,108.626,427.525,108.626z"/>
				<path style="fill:#CAD6DD;" d="M435.462,108.626L435.462,108.626c-1.304,0-2.361-1.057-2.361-2.361V81.64
					c0-1.304,1.057-2.36,2.361-2.36l0,0c1.304,0,2.36,1.057,2.36,2.36v24.625C437.822,107.569,436.765,108.626,435.462,108.626z"/>
				<path style="fill:#CAD6DD;" d="M443.398,108.626L443.398,108.626c-1.304,0-2.361-1.057-2.361-2.361V81.64
					c0-1.304,1.057-2.36,2.361-2.36l0,0c1.304,0,2.361,1.057,2.361,2.36v24.625C445.759,107.569,444.702,108.626,443.398,108.626z"
					/>
				<path style="fill:#CAD6DD;" d="M451.335,108.626L451.335,108.626c-1.304,0-2.36-1.057-2.36-2.361V81.64
					c0-1.304,1.057-2.36,2.36-2.36l0,0c1.304,0,2.361,1.057,2.361,2.36v24.625C453.695,107.569,452.638,108.626,451.335,108.626z"/>
              
			</g>
		</g>

				</g>
			</g>
		</g>
	
</g>
</svg>
