<svg xmlns="http://www.w3.org/2000/svg" xmlns:xlink="http://www.w3.org/1999/xlink" version="1.1" id="Layer_1" x="0px" y="0px" viewBox="275 545 163 470" style="enable-background:new 0 0 800 1130;" xml:space="preserve">

<defs>
  <filter id="cadre-noir" x="-25%" y="-25%" width="150%" height="150%">
    <feGaussianBlur in="SourceAlpha" stdDeviation="2" result="blur"/>
    <feComponentTransfer in="blur" result="sharpened">
      <feFuncA type="linear" slope="30" intercept="-5"/>
    </feComponentTransfer>
    <feFlood flood-color="#000000" flood-opacity="1" result="pureBlack"/>
    <feComposite in="pureBlack" in2="sharpened" operator="in" result="outline"/>
    <feMerge>
      <feMergeNode in="outline"/>
      <feMergeNode in="SourceGraphic"/>
    </feMerge>
  </filter>
</defs>
<g >

  <g transform="translate(800, 0) rotate(90)">
    <g xmlns="http://www.w3.org/2000/svg">
      <rect x="657.76" y="433.104" transform="matrix(6.123234e-17 -1 1 6.123234e-17 262.2495 1161.73)" fill="#4F4751" width="108.459" height="33.273"/>
      <rect x="987.357" y="479.127" transform="matrix(6.123234e-17 -1 1 6.123234e-17 513.2598 1475.3398)" fill="#930000" width="13.885" height="3.826"/>
      <rect x="987.357" y="419.399" transform="matrix(6.123234e-17 -1 1 6.123234e-17 572.9873 1415.6123)" fill="#930000" width="13.885" height="3.826"/>
      <path fill="#190F0F" d="M656.707,404.068v92.421c0,8.627-6.993,15.62-15.62,15.62H616.83   c-8.626,0-15.619-6.993-15.619-15.62v-92.421c0-8.626,6.993-15.62,15.619-15.62h24.257   C649.714,388.449,656.707,395.442,656.707,404.068z"/>
      <path fill="#190F0F" d="M799.626,391.535v115.692c0,4.2-3.405,7.605-7.605,7.605h-34.077c-4.2,0-7.604-3.405-7.604-7.605   V391.535c0-4.201,3.404-7.605,7.604-7.605h34.077C796.221,383.93,799.626,387.335,799.626,391.535z"/>
      <path fill="#190F0F" d="M977.87,391.535v115.692c0,4.2-3.404,7.605-7.604,7.605h-34.077c-4.2,0-7.605-3.405-7.605-7.605   V391.535c0-4.201,3.405-7.605,7.605-7.605h34.077C974.466,383.93,977.87,387.335,977.87,391.535z"/>
      <path fill="var(--fillColor)" d="M994.3,408.871v81.738c0,9.655-7.827,17.482-17.482,17.482h-251.46V391.389h251.46   C986.473,391.389,994.3,399.216,994.3,408.871z"/>
      <path fill="var(--fillColor-light)" d="M994.3,452.501v-43.63c0-9.655-7.827-17.482-17.482-17.482h-251.46v61.112H994.3z"/>
      <path fill="#EFCD41" d="M565.037,476.967v13.915c0,8.989,7.287,16.277,16.277,16.277h4.506l-1.365-30.192H565.037z"/>
      <path fill="#EFCD41" d="M565.037,422.397l0.011-13.922c0.007-8.987,7.296-16.268,16.284-16.264l3.146,0.001l-0.023,30.193   L565.037,422.397z"/>
      <path fill="var(--fillColor)" d="M686.281,391.389v116.703H590.07c-9.695,0-25.511-12.216-25.511-22.528v-74.357   c0-9.222,14.984-19.817,23.654-19.817H686.281z"/>
      <path fill="var(--fillColor)" d="M564.56,411.206v6.742c0-9.223,14.984-19.818,23.654-19.818h98.067v-6.741h-98.067   C579.544,391.389,564.56,401.984,564.56,411.206z"/>
      <path fill="#323530" d="M610.146,396.628l4.727,1.407l27.007,8.015v86.898l-31.733,9.192   c-1.998-7.353-3.537-14.421-4.699-21.143C596.373,428.716,610.146,396.628,610.146,396.628z"/>
      <path fill="#646663" d="M610.146,396.628l4.727,1.407c6.157,6.205,10.56,22.091,10.56,40.706   c0,23.986-7.292,43.435-16.258,43.435c-1.297,0-2.539-0.402-3.728-1.178C596.373,428.716,610.146,396.628,610.146,396.628z"/>
      <path fill="var(--fillColor)" d="M687.98,398.862h-41.154c-5.317,0-9.628,4.586-9.628,10.242v80.063   c0,6.325,4.82,11.452,10.767,11.452l39.851-2.587L687.98,398.862z"/>
      <path style="opacity:0.44;fill:var(--fillColor-light);" d="M690.977,414.226l-0.984,68.835l-35.212,2.194c-5.617,0-10.171-3.579-10.171-7.994   v-55.887c0-3.947,4.071-7.148,9.095-7.148H690.977z"/>
      <polygon fill="#323530" points="631.106,504.928 656.935,495.591 686.281,495.591 686.281,504.827  "/>
      <polygon fill="#323530" points="631.106,394.33 656.935,402.947 686.282,402.947 686.282,394.422  "/>
      <path fill="var(--fillColor-light)" d="M573.787,492.745l27.424-7.49c0,0-6.494-31.386-1.317-63.31l2.46-8.704l-28.566-7.421   C573.787,405.82,563.659,436.994,573.787,492.745z"/>
      <path d="M640.179,505.685v10.419c0,1.95-1.595,3.546-3.545,3.546l0,0c-1.949,0-3.545-1.596-3.545-3.546v-10.419   c0-1.949,1.596-3.545,3.545-3.545l0,0C638.584,502.141,640.179,503.736,640.179,505.685z"/>
      <path d="M640.179,385.89v10.419c0,1.95-1.595,3.545-3.545,3.545l0,0c-1.949,0-3.545-1.595-3.545-3.545V385.89   c0-1.95,1.596-3.545,3.545-3.545l0,0C638.584,382.345,640.179,383.94,640.179,385.89z"/>
      <rect x="847.933" y="328.814" transform="matrix(6.123234e-17 -1 1 6.123234e-17 414.8227 1287.3345)" fill="#323530" width="6.291" height="214.884"/>
      <rect x="734.65" y="429.167" transform="matrix(6.123234e-17 -1 1 6.123234e-17 303.96 1176.4727)" fill="#323530" width="11.132" height="14.179"/>
      <rect x="740.974" y="435.033" transform="matrix(6.123234e-17 -1 1 6.123234e-17 311.3159 1183.8286)" fill="#323530" width="13.196" height="2.447"/>
      <polygon fill="#5F5D68" points="985.865,434.31 985.865,437.893 958.52,439.401 958.52,433.11  "/>
      <rect x="953.434" y="435.792" transform="matrix(6.123234e-17 -1 1 6.123234e-17 521.8008 1394.3125)" fill="#5F5D68" width="9.246" height="0.928"/>
      <rect x="847.933" y="311.579" transform="matrix(6.123234e-17 -1 1 6.123234e-17 432.0581 1270.0991)" fill="#323530" width="6.291" height="214.884"/>
      <rect x="734.65" y="411.931" transform="matrix(6.123234e-17 -1 1 6.123234e-17 321.1964 1159.2363)" fill="#323530" width="11.132" height="14.179"/>
      <rect x="740.974" y="417.796" transform="matrix(6.123234e-17 -1 1 6.123234e-17 328.5522 1166.5923)" fill="#323530" width="13.196" height="2.447"/>
      <polygon fill="#5F5D68" points="985.865,417.074 985.865,420.657 958.52,422.166 958.52,415.875  "/>
      <rect x="953.434" y="418.557" transform="matrix(6.123234e-17 -1 1 6.123234e-17 539.0361 1377.0771)" fill="#5F5D68" width="9.246" height="0.928"/>
      <rect x="860.851" y="374.376" transform="matrix(6.123234e-17 -1 1 6.123234e-17 367.4146 1357.8784)" fill="#323530" width="3.591" height="241.711"/>
      <rect x="860.851" y="342.777" transform="matrix(6.123234e-17 -1 1 6.123234e-17 399.0142 1326.2788)" fill="#323530" width="3.591" height="241.711"/>
      <g>
        <rect x="779.601" y="463.633" fill="#323530" width="2.701" height="31.6"/>
        <rect x="805.8" y="463.633" fill="#323530" width="2.7" height="31.6"/>
        <rect x="831.998" y="463.633" fill="#323530" width="2.701" height="31.6"/>
        <rect x="858.197" y="463.633" fill="#323530" width="2.7" height="31.6"/>
        <rect x="884.396" y="463.633" fill="#323530" width="2.7" height="31.6"/>
        <rect x="910.595" y="463.633" fill="#323530" width="2.701" height="31.6"/>
        <rect x="936.794" y="463.633" fill="#323530" width="2.7" height="31.6"/>
        <rect x="962.992" y="463.633" fill="#323530" width="2.701" height="31.6"/>
      </g>
      <path fill="#191719" d="M695.672,396.015v107.451c0,2.555-2.071,4.626-4.626,4.626h-4.765V391.389h4.765   C693.601,391.389,695.672,393.46,695.672,396.015z"/>
      <path fill="#0843FF" d="M669.628,481.472c0,5.414,4.584,9.803,10.24,9.803h6.413v-35.117h-16.653V481.472z"/>
      <rect x="669.628" y="440.431" fill="#657A79" width="16.653" height="15.726"/>
      <path fill="#0843FF" d="M679.868,404.668c-5.656,0-10.24,4.389-10.24,9.803v25.96h16.653v-35.763H679.868z"/>
      <path style="opacity:0.19;fill:#A5C4C2;" d="M679.305,462.097v19.792c0,1.732-1.404,3.138-3.138,3.138h-0.139   c-1.732,0-3.138-1.405-3.138-3.138v-19.792c0-1.733,1.405-3.138,3.138-3.138h0.139C677.9,458.959,679.305,460.363,679.305,462.097z   "/>
      <path style="opacity:0.19;fill:#A5C4C2;" d="M679.305,415.4v19.792c0,1.733-1.404,3.138-3.138,3.138h-0.139   c-1.732,0-3.138-1.404-3.138-3.138V415.4c0-1.733,1.405-3.138,3.138-3.138h0.139C677.9,412.263,679.305,413.667,679.305,415.4z"/>
    </g>
  </g>
</g>
</svg>
