<svg xmlns="http://www.w3.org/2000/svg" xmlns:xlink="http://www.w3.org/1999/xlink" style="enable-background:new 0 0 1130 800" id="Layer_1" x="0" y="0" version="1.1" viewBox="115 675 150 320" xml:space="preserve"><defs><filter id="cadre-noir" width="150%" height="150%" x="-25%" y="-25%"><feGaussianBlur in="SourceAlpha" result="blur" stdDeviation="2"/><feComponentTransfer in="blur" result="sharpened"><feFuncA intercept="-5" slope="30" type="linear"/></feComponentTransfer><feFlood flood-color="#000" flood-opacity="1" result="pureBlack"/><feComposite in="pureBlack" in2="sharpened" operator="in" result="outline"/><feMerge><feMergeNode in="outline"/><feMergeNode in="SourceGraphic"/></feMerge></filter><style>@keyframes clignotant-rouge{0%,49.9%{fill:red}50%{fill:#0843ff}}@keyframes clignotant-bleu{0%,49.9%{fill:#0843ff}50%{fill:red}}.lampe-1{animation:clignotant-rouge .6s infinite}.lampe-2{animation:clignotant-bleu .6s infinite}</style></defs><g filter="url(#cadre-noir)"><g><g xmlns="http://www.w3.org/2000/svg" transform="translate(800, 0) rotate(90)"><path d="M696.588,636.509v14.599c0,5.794,4.696,10.49,10.489,10.49l0,0v-25.089H696.588z" style="fill:#efcd41"/><path d="M696.39,591.165l0.008-14.39c0.003-5.909,4.796-10.696,10.705-10.692l0,0l-0.014,25.089 L696.39,591.165z" style="fill:#efcd41"/><path d="M971.492,652.351v6.205c0,4.547-3.686,8.232-8.232,8.232l0,0v-22.671l0,0 C967.807,644.117,971.492,647.804,971.492,652.351z" style="fill:#bf0202"/><path d="M971.492,566.883v6.206c0,4.547-3.686,8.232-8.232,8.232l0,0V558.65l0,0 C967.807,558.65,971.492,562.337,971.492,566.883z" style="fill:#bf0202"/><path d="M783.72,562.447v101.289h-73.167c-3.413,0-6.031-2.05-7.237-4.894 c-6.137-14.607-9.195-30.259-9.195-45.893c0-15.538,3.021-31.067,9.045-45.534c0.828-1.985,2.324-3.52,4.131-4.319 c0.923-0.424,1.939-0.649,2.984-0.649H783.72z" style="fill:#fff"/><path d="M785.614,662.117l-0.925,1.619h-74.137c-3.413,0-6.031-2.05-7.237-4.894 c-6.137-14.607-9.195-30.259-9.195-45.893c0-15.538,3.021-31.067,9.045-45.534c0.828-1.985,2.324-3.52,4.131-4.319 c-0.027,0.057-0.047,0.094-0.047,0.094c-12.207,29.007-12.216,62.287,0.15,91.417c1.272,2.983,4.059,7.745,7.137,7.745 L785.614,662.117z" style="fill:#5a6867"/><path d="M703.246,581.636c-1.975,19.736-1.972,41.094,0.031,60.886 c0.56,5.538,4.506,9.984,9.614,10.935l13.588,2.529c0,0-9.923-71.317,0.822-88.023l-14.466,2.729 C707.734,571.654,703.8,576.102,703.246,581.636z" style="opacity:.51;fill:#fff"/><path d="M735.664,657.027l24.438-7.673v-72.479l-24.438-7.872 C735.664,569.003,722.146,603.113,735.664,657.027z" style="fill:#323530"/><polygon points="743.507 661.598 762.327 652.916 783.71 652.916 783.71 661.504" style="fill:#323530"/><polygon points="744.131 564.268 763.488 572.53 785.296 572.056 785.614 563.459" style="fill:#323530"/><path d="M766.037,641.674c0,4.679,3.53,8.472,7.886,8.472h4.939v-30.351h-12.825V641.674z" class="lampe-1"/><rect width="12.825" height="13.593" x="766.037" y="606.202" style="fill:#657a79"/><path d="M773.923,575.293c-4.355,0-7.886,3.793-7.886,8.472v22.438h12.825v-30.909H773.923z" class="lampe-2"/><path d="M773.49,624.685v17.591c0,1.364-1.106,2.47-2.47,2.47l0,0 c-1.364,0-2.471-1.105-2.471-2.47v-17.591c0-1.364,1.106-2.47,2.471-2.47l0,0C772.384,622.216,773.49,623.321,773.49,624.685z" style="opacity:.19;fill:#a5c4c2"/><path d="M773.49,584.326v17.591c0,1.364-1.106,2.47-2.47,2.47l0,0 c-1.364,0-2.471-1.105-2.471-2.47v-17.591c0-1.364,1.106-2.47,2.471-2.47l0,0C772.384,581.856,773.49,582.962,773.49,584.326z" style="opacity:.19;fill:#a5c4c2"/><path d="M966.731,554.626v114.701H790.826c-0.405,0-0.801-0.038-1.187-0.104 c-2.767-0.499-4.979-2.711-5.685-5.572c-0.16-0.621-0.245-1.289-0.245-1.967v-99.436c0-4.197,3.182-7.623,7.116-7.623H966.731z" style="fill:var(--truck-color)"/><path d="M790.969,554.624c-4.006,0-7.253,3.247-7.253,7.253v51.215h183.02v-58.468H790.969z" style="fill:var(--truck-color-light)"/><path d="M802.903,578.815c-10.598,0-19.188,8.591-19.188,19.188v23.057 c0,10.598,8.591,19.188,19.188,19.188h127.079v-61.432H802.903z" style="opacity:.51;fill:var(--truck-color-light)"/><g><polygon points="859.581 643.487 823.878 643.487 809.336 665.274 859.581 665.274" style="fill:#323530"/><polygon points="867.032 665.274 942.441 665.274 922.164 643.487 867.032 643.487" style="fill:#323530"/></g><g><polygon points="859.581 579.388 823.878 579.388 809.336 557.601 859.581 557.601" style="fill:#323530"/><polygon points="867.032 557.601 942.441 557.601 922.164 579.388 867.032 579.388" style="fill:#323530"/></g><rect width="146.27" height="15.219" x="783.713" y="636.509" style="fill:var(--truck-color-light)"/><rect width="146.27" height="15.239" x="783.713" y="571.194" style="fill:var(--truck-color-light)"/><path d="M952.751,577.985c-5.313,5.313-8.29,8.291-13.603,13.602v43.743 c5.313,5.313,8.29,8.291,13.603,13.602h4.075v-70.948H952.751z" style="fill:#323530"/><path d="M966.731,554.626v114.701H790.826c-0.358,0-0.763-0.038-1.187-0.104 c-2.767-0.499-4.979-2.711-5.685-5.572c0.838,0.103,1.534,0.179,1.751,0.179h175.915V554.626H966.731z" style="fill:#5a6867"/><rect width="17.829" height="5.029" x="703.107" y="610.787" transform="matrix(6.123234e-17 -1 1 6.123234e-17 98.7202 1325.3226)" style="fill:#f40b16"/><rect width="16.595" height="5.403" x="703.724" y="610.6" transform="matrix(-1 -1.224647e-16 1.224647e-16 -1 1424.042 1226.6025)" style="fill:#f40b16"/><path d="M744.131,564.268c0,0,1.905-8.169,5.321-11.838c3.415-3.67,7.783-0.854,7.783-0.854l-3.951,12.514 L744.131,564.268z" style="fill:#fff"/><path d="M743.507,661.598c0,0,2.054,8.178,5.454,11.862c3.4,3.685,7.78,0.891,7.78,0.891l-3.976-12.775 L743.507,661.598z" style="fill:#fff"/></g></g></g></svg>