<svg xmlns="http://www.w3.org/2000/svg" xmlns:xlink="http://www.w3.org/1999/xlink" x="0" y="0" version="1.1" viewBox="190 40 120 210" xml:space="preserve" style="enable-background:new 0 0 500 500;--truck-color:#3C8FDF;--truck-color-light:#54A6EF;transition:--truck-color .5s ease,--truck-color-light .5s ease"><path style="fill:var(--truck-color)" d="M288.083,90.539c0-18.646-1.072-28.804-5.915-33.647c-4.843-4.843-24.147-5.756-32.317-5.756 c-8.17,0-27.473,0.913-32.317,5.756c-4.843,4.843-5.915,14.058-5.915,33.647c0,26.831-3.257,134.729,5.086,141.473 c8.344,6.743,24.751,7.013,33.145,7.013c8.395,0,24.802-0.27,33.145-7.013C291.34,225.269,288.083,117.37,288.083,90.539z"/><path style="fill:var(--truck-color-light)" d="M284.797,94.767c0-18.05-0.979-24.722-5.406-29.149c-4.427-4.427-22.072-6.24-29.54-6.24 c-7.468,0-25.112,1.813-29.539,6.24c-4.427,4.427-5.406,9.104-5.406,29.149c0,4.172,0.484,10.453,1.747,16.646 c2.362,5.255,3.631,13.944,4.514,22.406c-1.009,1.379-1.603,4.101-1.603,6.981c-1.335,3.935-0.338,17.461,0,22.59 c0.018,0.281-0.018,1.173,0,1.453c0,0-0.798,17.715,0,25.534c0.193,1.892,0.634,4.511,0.971,5.098 c0.277,2.402-3.046,12.426-2.7,14.271c0.694,3.704,0.652,14.39,1.72,15.254c7.627,6.164,22.624,6.411,30.297,6.411 c7.673,0,22.67-0.247,30.297-6.411c1.068-0.863,1.025-11.55,1.72-15.254c0.346-1.845-2.978-11.87-2.7-14.271 c0.52-1.387,0.779-3.206,0.972-5.098c0.798-7.819,0-25.534,0-25.534c0.018-0.28-0.018-1.172,0-1.453 c0.338-5.129,1.335-18.656,0-22.59c0-2.88-0.594-5.602-1.603-6.981c0.882-8.462,2.151-17.151,4.513-22.406 C284.313,105.22,284.797,98.939,284.797,94.767z"/><g><polygon style="fill:var(--truck-color)" points="261.094 74.884 267.72 109.924 265.212 110.307"/><polygon style="fill:var(--truck-color)" points="238.608 74.884 234.491 110.307 231.982 109.924"/></g><g><path style="fill:#282f3a" d="M219.563,163.391v-23.454l-5.086-26.738c-1.016,9.593-1.091,33.427-0.896,50.192H219.563z"/><path style="fill:#282f3a" d="M213.599,164.844c0.222,17.535,0.723,32.662,0.723,32.662l5.242-7.128v-25.534H213.599z"/></g><path style="fill:var(--truck-color)" d="M249.851,100.597c0,0-19.388-0.238-33.713,9.873l4.583,22.406c0,0,7.883-6.467,29.13-6.467 c21.247,0,29.13,6.467,29.13,6.467l4.583-22.406C269.24,100.359,249.851,100.597,249.851,100.597z"/><path style="fill:#282f3a" d="M249.851,101.54c0,0-19.093-0.238-33.199,9.873l4.513,22.406c0,0,7.762-6.467,28.685-6.467 c20.923,0,28.685,6.467,28.685,6.467l4.513-22.406C268.944,101.302,249.851,101.54,249.851,101.54z"/><g><path style="fill:#3a454f" d="M280.139,163.391v-23.454l5.086-26.738c1.016,9.593,1.091,33.427,0.896,50.192H280.139z"/><path style="fill:#3a454f" d="M286.104,164.844c-0.222,17.535-0.723,32.662-0.723,32.662l-5.242-7.128v-25.534H286.104z"/></g><path style="fill:#282f3a" d="M279.168,195.475c-7.115,1.902-51.518,1.902-58.633,0c0,0-3.351,8.636-2.7,14.271 c4.817,2.863,15.018,6.501,32.017,6.501c16.999,0,27.2-3.638,32.017-6.501C282.519,204.112,279.168,195.475,279.168,195.475z"/><path style="fill:#3a454f" d="M278.536,133.819l4.513-22.406c-14.106-10.111-33.199-9.873-33.199-9.873v25.812 C270.774,127.352,278.536,133.819,278.536,133.819z"/><path style="fill:#3a454f" d="M279.168,195.475c-0.24,0.064-0.5,0.121-0.773,0.173c-0.073,0.014-0.166,0.027-0.243,0.04 c-0.161,0.028-0.317,0.057-0.488,0.081c-4.883,0.755-16.338,1.133-27.813,1.133v19.346c16.999,0,27.2-3.638,32.017-6.501 C282.519,204.112,279.168,195.475,279.168,195.475z"/><path style="fill:#282f3a" d="M263.485,53.829c0.724-0.62,1.477-1.222,2.241-1.816c-5.986-0.682-12.111-0.877-15.874-0.877 c-3.763,0-9.888,0.195-15.874,0.877c0.764,0.593,1.516,1.195,2.241,1.816C236.663,54.209,263.04,54.209,263.485,53.829z"/><g><path style="fill:#bdd6db" d="M214.834,60.873c0.068,0.54,0.42,1.025,0.968,1.216c0.111,0.038,0.224,0.063,0.337,0.074 c0.666,0.068,1.355-0.314,1.545-0.986c1.799-6.37,10.483-7.098,11.236-7.413c0.46-0.193,0.683-0.848,0.388-1.101 c-5.203,0.872-9.751,2.207-11.773,4.23C216.453,57.974,215.569,59.289,214.834,60.873z"/><path style="fill:#ec9100" d="M219.153,58.381c-0.496-0.709-1.05-1.091-1.7-1.399c-1.043,1.065-1.903,2.348-2.619,3.89 c0.068,0.54,0.42,1.025,0.968,1.216c0.111,0.038,0.224,0.063,0.337,0.074c0.666,0.068,1.355-0.314,1.545-0.986 C217.992,60.084,218.514,59.168,219.153,58.381z"/></g><path style="fill:#bdd6db" d="M283.936,62.088c0.507-0.176,0.834-0.607,0.937-1.096c-0.736-1.65-1.622-3.017-2.705-4.1 c-0.149-0.149-0.313-0.295-0.489-0.437c-0.004-0.003-0.007-0.006-0.011-0.009c-0.531-0.426-1.179-0.819-1.924-1.182 c-0.022-0.011-0.046-0.022-0.068-0.032c-0.462-0.222-0.962-0.433-1.493-0.632c-0.051-0.019-0.101-0.039-0.152-0.057 c-0.831-0.306-1.738-0.585-2.701-0.841c-0.124-0.033-0.251-0.065-0.377-0.097c-0.498-0.127-1.01-0.248-1.535-0.363 c-0.176-0.038-0.352-0.077-0.53-0.114c-0.301-0.063-0.604-0.125-0.911-0.184c-0.394-0.076-0.793-0.148-1.197-0.218 c-0.116-0.02-0.235-0.039-0.352-0.058c-0.288,0.256-0.067,0.903,0.391,1.095c0.753,0.315,9.436,1.043,11.236,7.413 c0.19,0.672,0.879,1.053,1.544,0.986C283.711,62.151,283.824,62.126,283.936,62.088z"/><path style="fill:#ec9100" d="M284.478,61.729c0.027-0.028,0.058-0.051,0.083-0.08c0.075-0.091,0.138-0.191,0.189-0.298 c0.001-0.003,0.003-0.005,0.005-0.008c0.053-0.111,0.092-0.229,0.118-0.351l0-0.001c-0.714-1.601-1.573-2.929-2.612-3.997 c-0.639,0.306-1.186,0.686-1.675,1.386c0.25,0.308,0.477,0.64,0.683,0.993c0.091,0.154,0.179,0.311,0.261,0.474 c0.058,0.118,0.115,0.236,0.168,0.359c0.136,0.309,0.259,0.629,0.356,0.971c0.095,0.336,0.314,0.599,0.594,0.77 c0.279,0.171,0.618,0.249,0.951,0.216c0.113-0.011,0.226-0.036,0.337-0.074c0.13-0.045,0.248-0.109,0.354-0.185 C284.361,61.853,284.419,61.791,284.478,61.729z"/><path style="fill:#282f3a" d="M249.851,239.025c3.739,0,9.069-0.058,14.567-0.713c-0.025-0.132-0.05-0.263-0.075-0.395 c-0.221-1.156-1.313-2.02-2.448-1.962c-8.024,0.414-16.064,0.414-24.088,0c-1.135-0.058-2.227,0.806-2.448,1.962 c-0.025,0.132-0.05,0.263-0.075,0.395C240.782,238.968,246.112,239.025,249.851,239.025z"/><g><path style="fill:#dd3e3e" d="M230.496,236.792c0.002-0.01,0.004-0.019,0.006-0.029c0.172-0.781-0.317-1.545-1.096-1.73 c-2.317-0.549-4.617-1.193-6.894-1.932c-0.761-0.247-1.577,0.152-1.836,0.908c-0.003,0.009-0.007,0.019-0.01,0.028 c-0.047,0.137-0.048,0.275-0.054,0.413c2.83,1.396,6.096,2.366,9.475,3.04C230.277,237.299,230.434,237.073,230.496,236.792z"/><path style="fill:#dd3e3e" d="M279.026,234.009c-0.259-0.757-1.075-1.155-1.836-0.908c-2.278,0.739-4.577,1.383-6.894,1.932 c-0.778,0.185-1.268,0.949-1.096,1.73c0.002,0.01,0.004,0.019,0.006,0.029c0.062,0.281,0.219,0.507,0.408,0.699 c3.379-0.674,6.645-1.644,9.475-3.04c-0.006-0.138-0.007-0.277-0.054-0.413C279.032,234.028,279.029,234.019,279.026,234.009z"/></g><g><path style="fill:#282f3a" d="M212.14,115.907l-0.229,3.264c-0.02,0.278,0.113,0.545,0.346,0.698l0.629,0.412l0.654-5.534 l-0.997,0.537C212.31,115.408,212.158,115.643,212.14,115.907z"/><path style="fill:var(--truck-color-light)" d="M211.938,118.104l-8.718,2.099c-0.676,0.163-1.282-0.481-1.052-1.137 c0.405-1.158,1.555-2.733,4.745-3.621c3.219-0.897,4.819,0.083,5.589,1.04C212.968,117.063,212.66,117.93,211.938,118.104z"/></g><g><path style="fill:#282f3a" d="M288.014,115.907l0.229,3.264c0.02,0.278-0.113,0.545-0.346,0.698l-0.629,0.412l-0.654-5.534 l0.997,0.537C287.843,115.408,287.995,115.643,288.014,115.907z"/><path style="fill:var(--truck-color-light)" d="M288.216,118.104l8.718,2.099c0.676,0.163,1.282-0.481,1.052-1.137 c-0.405-1.158-1.555-2.733-4.745-3.621c-3.219-0.897-4.819,0.083-5.589,1.04C287.185,117.063,287.493,117.93,288.216,118.104z"/></g><g><path style="fill:#ffa312" d="M230.496,236.792c0.002-0.01,0.004-0.019,0.006-0.029c0.172-0.781-0.317-1.545-1.096-1.73 c-0.574-0.136-1.143-0.296-1.715-0.443l-0.187,2.317c0.85,0.215,1.713,0.41,2.584,0.584 C230.277,237.299,230.434,237.073,230.496,236.792z"/><path style="fill:#ffa312" d="M269.2,236.763c0.002,0.01,0.004,0.019,0.006,0.029c0.062,0.281,0.219,0.507,0.408,0.699 c0.871-0.174,1.733-0.369,2.584-0.584l-0.187-2.317c-0.572,0.148-1.141,0.307-1.715,0.443 C269.517,235.217,269.028,235.982,269.2,236.763z"/></g><path style="fill:var(--truck-color)" d="M263.406,172.787h-27.109c-1.281,0-2.319-1.038-2.319-2.319v-20.049 c0-1.281,1.038-2.319,2.319-2.319h27.109c1.281,0,2.319,1.038,2.319,2.319v20.049 C265.725,171.749,264.687,172.787,263.406,172.787z"/><path style="fill:#282f3a" d="M262.653,171.937h-25.604c-1.21,0-2.191-0.967-2.191-2.16v-18.669c0-1.193,0.981-2.16,2.191-2.16 h25.604c1.21,0,2.19,0.967,2.19,2.16v18.669C264.843,170.97,263.863,171.937,262.653,171.937z"/><path style="fill:#3a454f" d="M262.653,148.949h-12.802v22.988h12.802c1.21,0,2.19-0.967,2.19-2.16v-18.669 C264.843,149.916,263.863,148.949,262.653,148.949z"/><g><g><path style="fill:#282f3a" d="M211.073,154.946h-0.013c-0.364,0-0.658-0.295-0.658-0.658v-3.92 c0-0.364,0.295-0.658,0.658-0.658h0.013c0.364,0,0.658,0.295,0.658,0.658v3.92 C211.731,154.652,211.437,154.946,211.073,154.946z"/><path style="fill:#282f3a" d="M211.073,169.519h-0.013c-0.364,0-0.658-0.295-0.658-0.658v-3.92 c0-0.363,0.295-0.658,0.658-0.658h0.013c0.364,0,0.658,0.295,0.658,0.658v3.92 C211.731,169.224,211.437,169.519,211.073,169.519z"/></g><g><path style="fill:#282f3a" d="M288.642,154.946h-0.013c-0.364,0-0.658-0.295-0.658-0.658v-3.92 c0-0.364,0.295-0.658,0.658-0.658h0.013c0.363,0,0.658,0.295,0.658,0.658v3.92 C289.301,154.652,289.006,154.946,288.642,154.946z"/><path style="fill:#282f3a" d="M288.642,169.519h-0.013c-0.364,0-0.658-0.295-0.658-0.658v-3.92 c0-0.363,0.295-0.658,0.658-0.658h0.013c0.363,0,0.658,0.295,0.658,0.658v3.92 C289.301,169.224,289.006,169.519,288.642,169.519z"/></g></g></svg>