<svg xmlns="http://www.w3.org/2000/svg" id="tractor" width="100%" height="100%" viewBox="300 130 400 780" style="--truck-color:#b39b22;--truck-color-light:#f5de56;transition:--truck-color .5s ease,--truck-color-light .5s ease"><defs><linearGradient id="yellow-body" x1="0%" x2="100%" y1="0%" y2="0%"><stop offset="0%" stop-color="var(--truck-color)"/><stop offset="15%" stop-color="var(--truck-color-light)"/><stop offset="50%" stop-color="var(--truck-color-light)"/><stop offset="85%" stop-color="var(--truck-color-light)"/><stop offset="100%" stop-color="var(--truck-color)"/></linearGradient><linearGradient id="yellow-fender" x1="0%" x2="0%" y1="0%" y2="100%"><stop offset="0%" stop-color="var(--truck-color-light)"/><stop offset="50%" stop-color="var(--truck-color-light)"/><stop offset="100%" stop-color="var(--truck-color)"/></linearGradient><linearGradient id="grey-grille" x1="0%" x2="100%" y1="0%" y2="0%"><stop offset="0%" stop-color="#555"/><stop offset="50%" stop-color="#888"/><stop offset="100%" stop-color="#444"/></linearGradient><linearGradient id="dark-metal" x1="0%" x2="100%" y1="0%" y2="100%"><stop offset="0%" stop-color="#2a2c30"/><stop offset="50%" stop-color="#151618"/><stop offset="100%" stop-color="#0a0a0b"/></linearGradient><pattern id="tread-front" width="30" height="20" patternTransform="rotate(0)" patternUnits="userSpaceOnUse"><path fill="#181818" d="M 0 10 Q 15 0 30 10 L 30 15 Q 15 5 0 15 Z"/></pattern><pattern id="tread-rear" width="40" height="30" patternTransform="rotate(0)" patternUnits="userSpaceOnUse"><path fill="#181818" d="M 0 15 Q 20 0 40 15 L 40 22 Q 20 7 0 22 Z"/></pattern><pattern id="floor-tread" width="10" height="10" patternUnits="userSpaceOnUse"><circle cx="5" cy="5" r="1.5" fill="#111"/></pattern></defs><g filter="url(#drop-shadow)"><rect width="240" height="20" x="380" y="270" fill="url(#dark-metal)"/><circle cx="390" cy="280" r="15" fill="#111"/><circle cx="610" cy="280" r="15" fill="#111"/><rect width="65" height="270" x="320" y="150" fill="#222" rx="10"/><rect width="61" height="260" x="322" y="155" fill="url(#tread-front)" rx="8"/><rect width="10" height="270" x="320" y="150" fill="#fff" opacity=".05" rx="10"/><rect width="10" height="270" x="375" y="150" fill="#000" opacity=".5" rx="10"/><rect width="65" height="270" x="615" y="150" fill="#222" rx="10"/><rect width="61" height="260" x="617" y="155" fill="url(#tread-front)" rx="8"/><rect width="10" height="270" x="615" y="150" fill="#fff" opacity=".05" rx="10"/><rect width="10" height="270" x="670" y="150" fill="#000" opacity=".5" rx="10"/></g><g filter="url(#drop-shadow)"><rect width="85" height="315" x="310" y="580" fill="#222" rx="15"/><rect width="81" height="305" x="312" y="585" fill="url(#tread-rear)" rx="12"/><rect width="15" height="315" x="310" y="580" fill="#fff" opacity=".05" rx="15"/><rect width="15" height="315" x="380" y="580" fill="#000" opacity=".5" rx="15"/><rect width="85" height="315" x="605" y="580" fill="#222" rx="15"/><rect width="81" height="305" x="607" y="585" fill="url(#tread-rear)" rx="12"/><rect width="15" height="315" x="605" y="580" fill="#fff" opacity=".05" rx="15"/><rect width="15" height="315" x="675" y="580" fill="#000" opacity=".5" rx="15"/></g><g filter="url(#drop-shadow)"><rect width="160" height="300" x="420" y="450" fill="#222"/><path fill="url(#grey-grille)" stroke="#333" stroke-width="2" d="M 430 155 L 570 155 L 575 185 L 425 185 Z"/><path fill="url(#yellow-body)" stroke="var(--truck-color)" stroke-width="2" d="M 430 185 L 570 185 L 575 480 L 550 565 L 450 565 L 425 480 Z"/><circle cx="530" cy="215" r="16" fill="#1a1a1a"/><circle cx="530" cy="215" r="12" fill="#333" stroke="#111" stroke-width="2"/><rect width="10" height="6" x="525" y="212" fill="#111"/><ellipse cx="425" cy="450" fill="#222" rx="12" ry="20"/><ellipse cx="425" cy="450" fill="#111" rx="8" ry="15"/><line x1="500" x2="500" y1="185" y2="480" stroke="var(--truck-color)" stroke-width="2"/><path fill="#111" d="M 425 475 L 575 475 L 577 482 L 423 482 Z"/><text x="440" y="450" fill="#333" font-family="Arial, sans-serif" font-size="14" font-weight="bold" letter-spacing="2" transform="rotate(-90 440 450)">TAFE 5900 DI</text><text x="560" y="280" fill="#333" font-family="Arial, sans-serif" font-size="14" font-weight="bold" letter-spacing="2" transform="rotate(90 560 280)">TAFE 5900 DI</text></g><g filter="url(#drop-shadow)"><rect width="190" height="150" x="405" y="520" fill="#2b2d30"/><rect width="180" height="140" x="410" y="525" fill="url(#floor-tread)"/><path fill="#1a1c1e" d="M 450 550 L 550 550 L 540 580 L 460 580 Z"/><rect width="10" height="30" x="495" y="565" fill="#111"/><circle cx="500" cy="590" r="35" fill="none" stroke="#222" stroke-width="8"/><circle cx="500" cy="590" r="8" fill="#111"/><line x1="500" x2="500" y1="590" y2="555" stroke="#222" stroke-width="4"/><line x1="500" x2="470" y1="590" y2="610" stroke="#222" stroke-width="4"/><line x1="500" x2="530" y1="590" y2="610" stroke="#222" stroke-width="4"/><rect width="50" height="40" x="475" y="660" fill="#151618"/><path fill="#222" stroke="#111" stroke-width="2" d="M 460 655 C 460 640, 540 640, 540 655 L 535 710 C 535 720, 465 720, 465 710 Z"/><rect width="60" height="25" x="470" y="710" fill="#1a1a1a" stroke="#0a0a0a" stroke-width="2" rx="5"/><rect width="12" height="30" x="430" y="690" fill="#111"/><circle cx="436" cy="690" r="6" fill="#111"/><rect width="8" height="20" x="445" y="690" fill="#111"/><circle cx="449" cy="690" r="4" fill="#a00"/><rect width="20" height="60" x="555" y="650" fill="#111"/><rect width="4" height="40" x="560" y="655" fill="#333"/><rect width="4" height="40" x="568" y="655" fill="#333"/><circle cx="562" cy="655" r="5" fill="#a00"/><circle cx="570" cy="665" r="5" fill="#111"/></g><g filter="url(#drop-shadow)"><rect width="85" height="230" x="340" y="645" fill="url(#yellow-fender)" stroke="var(--truck-color)" stroke-width="2" rx="6"/><rect width="15" height="180" x="410" y="670" fill="var(--truck-color)"/><path fill="none" stroke="#222" stroke-linejoin="round" stroke-width="4" d="M 355 710 L 355 830 L 390 830"/><rect width="30" height="12" x="348" y="855" fill="#d42611" rx="2"/><rect width="20" height="8" x="350" y="650" fill="#e89d1a" rx="1"/><rect width="85" height="230" x="575" y="645" fill="url(#yellow-fender)" stroke="var(--truck-color)" stroke-width="2" rx="6"/><rect width="15" height="180" x="575" y="670" fill="var(--truck-color)"/><path fill="none" stroke="#222" stroke-linejoin="round" stroke-width="4" d="M 645 710 L 645 830 L 610 830"/><rect width="30" height="12" x="622" y="855" fill="#d42611" rx="2"/><rect width="20" height="8" x="630" y="650" fill="#e89d1a" rx="1"/></g><g filter="url(#drop-shadow)"><rect width="80" height="60" x="460" y="740" fill="url(#dark-metal)" rx="5"/><circle cx="500" cy="770" r="15" fill="#111"/><path fill="#222" d="M 460 780 L 440 880 L 450 880 L 470 790 Z"/><circle cx="445" cy="880" r="6" fill="#111"/><path fill="#1a1a1a" d="M 465 790 L 435 830 L 440 835 L 470 795 Z"/><path fill="#222" d="M 540 780 L 560 880 L 550 880 L 530 790 Z"/><circle cx="555" cy="880" r="6" fill="#111"/><path fill="#1a1a1a" d="M 535 790 L 565 830 L 560 835 L 530 795 Z"/><path fill="#111" d="M 490 800 L 490 850 L 510 850 L 510 800 Z"/><path fill="#222" d="M 495 850 L 500 890 L 505 850 Z"/><circle cx="500" cy="885" r="4" fill="#555"/></g></svg>