<svg id="tractor" xmlns="http://www.w3.org/2000/svg" viewBox="300 130 400 780" width="100%" height="100%"
     style="
       --truck-color: #b39b22; 
       --truck-color-light: #f5de56;
       transition: --truck-color 0.5s ease, --truck-color-light 0.5s ease;
     ">
  <defs>

    <linearGradient id="yellow-body" x1="0%" y1="0%" x2="100%" y2="0%">
      <stop offset="0%" stop-color="var(--truck-color)"/>
      <stop offset="15%" stop-color="var(--truck-color-light)"/>
      <stop offset="50%" stop-color="var(--truck-color-light)"/>
      <stop offset="85%" stop-color="var(--truck-color-light)"/>
      <stop offset="100%" stop-color="var(--truck-color)"/>
    </linearGradient>

    <linearGradient id="yellow-fender" x1="0%" y1="0%" x2="0%" y2="100%">
      <stop offset="0%" stop-color="var(--truck-color-light)"/>
      <stop offset="50%" stop-color="var(--truck-color-light)"/>
      <stop offset="100%" stop-color="var(--truck-color)"/>
    </linearGradient>

    <linearGradient id="grey-grille" x1="0%" y1="0%" x2="100%" y2="0%">
      <stop offset="0%" stop-color="#555"/>
      <stop offset="50%" stop-color="#888"/>
      <stop offset="100%" stop-color="#444"/>
    </linearGradient>
    
    <linearGradient id="dark-metal" x1="0%" y1="0%" x2="100%" y2="100%">
      <stop offset="0%" stop-color="#2a2c30"/>
      <stop offset="50%" stop-color="#151618"/>
      <stop offset="100%" stop-color="#0a0a0b"/>
    </linearGradient>

    <pattern id="tread-front" width="30" height="20" patternUnits="userSpaceOnUse" patternTransform="rotate(0)">
      <path d="M 0 10 Q 15 0 30 10 L 30 15 Q 15 5 0 15 Z" fill="#181818"/>
    </pattern>
    <pattern id="tread-rear" width="40" height="30" patternUnits="userSpaceOnUse" patternTransform="rotate(0)">
      <path d="M 0 15 Q 20 0 40 15 L 40 22 Q 20 7 0 22 Z" fill="#181818"/>
    </pattern>
    
    <pattern id="floor-tread" width="10" height="10" patternUnits="userSpaceOnUse">
      <circle cx="5" cy="5" r="1.5" fill="#111"/>
    </pattern>
  </defs>

  <g filter="url(#drop-shadow)">
    <rect x="380" y="270" width="240" height="20" fill="url(#dark-metal)"/>
    <circle cx="390" cy="280" r="15" fill="#111"/>
    <circle cx="610" cy="280" r="15" fill="#111"/>

    <rect x="320" y="150" width="65" height="270" rx="10" fill="#222"/>
    <rect x="322" y="155" width="61" height="260" rx="8" fill="url(#tread-front)"/>
    <rect x="320" y="150" width="10" height="270" rx="10" fill="#fff" opacity="0.05"/>
    <rect x="375" y="150" width="10" height="270" rx="10" fill="#000" opacity="0.5"/>

    <rect x="615" y="150" width="65" height="270" rx="10" fill="#222"/>
    <rect x="617" y="155" width="61" height="260" rx="8" fill="url(#tread-front)"/>
    <rect x="615" y="150" width="10" height="270" rx="10" fill="#fff" opacity="0.05"/>
    <rect x="670" y="150" width="10" height="270" rx="10" fill="#000" opacity="0.5"/>
  </g>

  <g filter="url(#drop-shadow)">
    <rect x="310" y="580" width="85" height="315" rx="15" fill="#222"/>
    <rect x="312" y="585" width="81" height="305" rx="12" fill="url(#tread-rear)"/>
    <rect x="310" y="580" width="15" height="315" rx="15" fill="#fff" opacity="0.05"/>
    <rect x="380" y="580" width="15" height="315" rx="15" fill="#000" opacity="0.5"/>

    <rect x="605" y="580" width="85" height="315" rx="15" fill="#222"/>
    <rect x="607" y="585" width="81" height="305" rx="12" fill="url(#tread-rear)"/>
    <rect x="605" y="580" width="15" height="315" rx="15" fill="#fff" opacity="0.05"/>
    <rect x="675" y="580" width="15" height="315" rx="15" fill="#000" opacity="0.5"/>
  </g>

  <g filter="url(#drop-shadow)">
    <rect x="420" y="450" width="160" height="300" fill="#222"/>
    
    <path d="M 430 155 L 570 155 L 575 185 L 425 185 Z" fill="url(#grey-grille)" stroke="#333" stroke-width="2"/>
    
    <path d="M 430 185 L 570 185 L 575 480 L 550 565 L 450 565 L 425 480 Z" fill="url(#yellow-body)" stroke="var(--truck-color)" stroke-width="2"/>
    
    <circle cx="530" cy="215" r="16" fill="#1a1a1a"/>
    <circle cx="530" cy="215" r="12" fill="#333" stroke="#111" stroke-width="2"/>
    <rect x="525" y="212" width="10" height="6" fill="#111"/>

    <ellipse cx="425" cy="450" rx="12" ry="20" fill="#222"/>
    <ellipse cx="425" cy="450" rx="8" ry="15" fill="#111"/>
    
    <line x1="500" y1="185" x2="500" y2="480" stroke="var(--truck-color)" stroke-width="2"/>
    <path d="M 425 475 L 575 475 L 577 482 L 423 482 Z" fill="#111"/>

    <text x="440" y="450" font-family="Arial, sans-serif" font-size="14" font-weight="bold" fill="#333" transform="rotate(-90 440 450)" letter-spacing="2">TAFE 5900 DI</text>
    <text x="560" y="280" font-family="Arial, sans-serif" font-size="14" font-weight="bold" fill="#333" transform="rotate(90 560 280)" letter-spacing="2">TAFE 5900 DI</text>
  </g>

  <g filter="url(#drop-shadow)">
    <rect x="405" y="520" width="190" height="150" fill="#2b2d30"/>
    <rect x="410" y="525" width="180" height="140" fill="url(#floor-tread)"/>

    <path d="M 450 550 L 550 550 L 540 580 L 460 580 Z" fill="#1a1c1e"/>

    <rect x="495" y="565" width="10" height="30" fill="#111"/>
    <circle cx="500" cy="590" r="35" fill="none" stroke="#222" stroke-width="8"/>
    <circle cx="500" cy="590" r="8" fill="#111"/>
    <line x1="500" y1="590" x2="500" y2="555" stroke="#222" stroke-width="4"/>
    <line x1="500" y1="590" x2="470" y2="610" stroke="#222" stroke-width="4"/>
    <line x1="500" y1="590" x2="530" y2="610" stroke="#222" stroke-width="4"/>

    <rect x="475" y="660" width="50" height="40" fill="#151618"/>
    <path d="M 460 655 C 460 640, 540 640, 540 655 L 535 710 C 535 720, 465 720, 465 710 Z" fill="#222" stroke="#111" stroke-width="2"/>
    <rect x="470" y="710" width="60" height="25" rx="5" fill="#1a1a1a" stroke="#0a0a0a" stroke-width="2"/>

    <rect x="430" y="690" width="12" height="30" fill="#111"/>
    <circle cx="436" cy="690" r="6" fill="#111"/>
    <rect x="445" y="690" width="8" height="20" fill="#111"/>
    <circle cx="449" cy="690" r="4" fill="#a00"/>
    
    <rect x="555" y="650" width="20" height="60" fill="#111"/>
    <rect x="560" y="655" width="4" height="40" fill="#333"/>
    <rect x="568" y="655" width="4" height="40" fill="#333"/>
    <circle cx="562" cy="655" r="5" fill="#a00"/>
    <circle cx="570" cy="665" r="5" fill="#111"/>
  </g>

  <g filter="url(#drop-shadow)">
    <rect x="340" y="645" width="85" height="230" rx="6" fill="url(#yellow-fender)" stroke="var(--truck-color)" stroke-width="2"/>
    <rect x="410" y="670" width="15" height="180" fill="var(--truck-color)"/>
    <path d="M 355 710 L 355 830 L 390 830" fill="none" stroke="#222" stroke-width="4" stroke-linejoin="round"/>
    
    <rect x="348" y="855" width="30" height="12" rx="2" fill="#d42611"/>
    <rect x="350" y="650" width="20" height="8" rx="1" fill="#e89d1a"/>

    <rect x="575" y="645" width="85" height="230" rx="6" fill="url(#yellow-fender)" stroke="var(--truck-color)" stroke-width="2"/>
    <rect x="575" y="670" width="15" height="180" fill="var(--truck-color)"/>
    <path d="M 645 710 L 645 830 L 610 830" fill="none" stroke="#222" stroke-width="4" stroke-linejoin="round"/>

    <rect x="622" y="855" width="30" height="12" rx="2" fill="#d42611"/>
    <rect x="630" y="650" width="20" height="8" rx="1" fill="#e89d1a"/>
  </g>

  <g filter="url(#drop-shadow)">
    <rect x="460" y="740" width="80" height="60" rx="5" fill="url(#dark-metal)"/>
    <circle cx="500" cy="770" r="15" fill="#111"/>
    
    <path d="M 460 780 L 440 880 L 450 880 L 470 790 Z" fill="#222"/>
    <circle cx="445" cy="880" r="6" fill="#111"/>
    <path d="M 465 790 L 435 830 L 440 835 L 470 795 Z" fill="#1a1a1a"/> <path d="M 540 780 L 560 880 L 550 880 L 530 790 Z" fill="#222"/>
    <circle cx="555" cy="880" r="6" fill="#111"/>
    <path d="M 535 790 L 565 830 L 560 835 L 530 795 Z" fill="#1a1a1a"/> <path d="M 490 800 L 490 850 L 510 850 L 510 800 Z" fill="#111"/>
    <path d="M 495 850 L 500 890 L 505 850 Z" fill="#222"/>
    <circle cx="500" cy="885" r="4" fill="#555"/>
  </g>
</svg>
