<svg xmlns="http://www.w3.org/2000/svg" id="truck" width="100%" height="100%" viewBox="-4 -4 408 658" style="--truck-color:#146633;--truck-color-light:#1b8542;transition:--truck-color .5s ease,--truck-color-light .5s ease"><defs><filter id="cadre-noir" width="150%" height="150%" x="-25%" y="-25%"><feGaussianBlur in="SourceAlpha" result="blur" stdDeviation="2"/><feComponentTransfer in="blur" result="sharpened"><feFuncA intercept="-5" slope="30" type="linear"/></feComponentTransfer><feFlood flood-color="#000" flood-opacity="1" result="pureBlack"/><feComposite in="pureBlack" in2="sharpened" operator="in" result="outline"/><feMerge><feMergeNode in="outline"/><feMergeNode in="SourceGraphic"/></feMerge></filter><linearGradient id="boxGradient" x1="0" x2="1" y1="0" y2="0"><stop offset="0%" stop-color="var(--truck-color)"/><stop offset="50%" stop-color="var(--truck-color-light)"/><stop offset="100%" stop-color="var(--truck-color)"/></linearGradient><linearGradient id="cabGradient" x1="0" x2="1" y1="0" y2="0"><stop offset="0%" stop-color="#e8e8e8"/><stop offset="15%" stop-color="#fff"/><stop offset="85%" stop-color="#fff"/><stop offset="100%" stop-color="#e8e8e8"/></linearGradient><linearGradient id="windshieldGrad" x1="0" x2="0" y1="0" y2="1"><stop offset="0%" stop-color="#111"/><stop offset="60%" stop-color="#3a3a3a"/><stop offset="100%" stop-color="#111"/></linearGradient><filter id="shadow" width="130%" height="130%" x="-10%" y="-10%"><feDropShadow dx="0" dy="6" flood-color="#000" flood-opacity=".25" stdDeviation="5"/></filter><filter id="lightShadow" width="130%" height="130%" x="-10%" y="-10%"><feDropShadow dx="0" dy="3" flood-color="#000" flood-opacity=".15" stdDeviation="3"/></filter></defs><g filter="url(#cadre-noir)"><g filter="url(#shadow)"><rect width="260" height="360" x="70" y="240" fill="#ccc" stroke="#a0a0a0" stroke-width="3" rx="3"/><rect width="248" height="348" x="76" y="246" fill="url(#boxGradient)"/><rect width="12" height="12" x="68" y="238" fill="#888" rx="2"/><rect width="12" height="12" x="320" y="238" fill="#888" rx="2"/><rect width="12" height="12" x="68" y="590" fill="#888" rx="2"/><rect width="12" height="12" x="320" y="590" fill="#888" rx="2"/></g><g filter="url(#lightShadow)"><path fill="#222" d="M 110 145 C 80 145 55 150 45 160 C 40 165 50 170 70 165 L 110 160 Z"/><path fill="#555" d="M 60 155 C 55 158 52 162 55 164 C 58 165 65 161 68 158 Z"/><path fill="#222" d="M 290 145 C 320 145 345 150 355 160 C 360 165 350 170 330 165 L 290 160 Z"/><path fill="#555" d="M 340 155 C 345 158 348 162 345 164 C 342 165 335 161 332 158 Z"/></g><g filter="url(#shadow)"><rect width="190" height="215" x="105" y="40" fill="url(#cabGradient)" stroke="#dcdcdc" stroke-width="1" rx="45"/><path fill="#2a2a2a" d="M 125 40 Q 200 25 275 40 L 285 60 Q 200 50 115 60 Z"/><ellipse cx="200" cy="46" fill="#666" rx="8" ry="4"/><path fill="url(#windshieldGrad)" d="M 115 105 C 150 85 250 85 285 105 L 295 150 C 260 160 140 160 105 150 Z"/><path stroke="#1a1a1a" stroke-linecap="round" stroke-width="2.5" d="M 140 148 L 195 138"/><path stroke="#1a1a1a" stroke-linecap="round" stroke-width="2.5" d="M 205 148 L 260 138"/><path fill="#222" d="M 120 110 C 150 95 250 95 280 110 L 270 120 C 230 110 170 110 130 120 Z" opacity=".6"/><path fill="#222" d="M 106 125 Q 112 165 110 200 L 102 200 Q 100 165 102 125 Z"/><path fill="#222" d="M 294 125 Q 288 165 290 200 L 298 200 Q 300 165 298 125 Z"/><rect width="35" height="75" x="135" y="170" fill="#f5f5f5" stroke="#e0e0e0" stroke-width="1" rx="4"/><rect width="35" height="75" x="230" y="170" fill="#f5f5f5" stroke="#e0e0e0" stroke-width="1" rx="4"/><line x1="170" x2="230" y1="165" y2="165" stroke="#e0e0e0" stroke-linecap="round" stroke-width="1.5"/><g filter="url(#lightShadow)"><rect width="4" height="65" x="272" y="165" fill="#fff" stroke="#e5e5e5" stroke-width=".5" rx="2"/><circle cx="274" cy="168" r="3.5" fill="#333"/></g></g></g></svg>