<?xml version="1.0" encoding="utf-8"?>
<!-- Generator: Adobe Illustrator 27.5.0, SVG Export Plug-In . SVG Version: 6.00 Build 0)  -->
<svg version="1.1" xmlns="http://www.w3.org/2000/svg" xmlns:xlink="http://www.w3.org/1999/xlink" x="0px" y="0px"
	 viewBox="0 0 500 500" style="enable-background:new 0 0 500 500;" xml:space="preserve">

		<path style="fill:#A2999A;" d="M414.164,300.854c0.415-18.645-0.242-23.81-4.927-28.651c-4.659-4.841-23.969-5.753-32.141-5.753
				c-8.172,0-27.481,0.912-32.138,5.753c-4.686,4.841-5.362,9.063-4.916,28.651c1.477,26.832-3.259,129.254,4.131,135.976
				c8.081,6.74,24.539,7.01,32.924,7.01c8.385,0,24.843-0.269,32.927-7.01C417.423,430.108,412.704,327.686,414.164,300.854z"/>
			<path style="fill:#C3CCC7;" d="M410.899,305.082c0-14.572-0.376-21.486-4.648-25.912c-4.246-4.425-21.736-6.238-29.153-6.238
				s-24.906,1.812-29.15,6.238c-4.274,4.426-4.639,11.555-4.639,25.912c0,4.173,0.65,10.453,1.934,16.648
				c2.331,5.256,3.615,13.947,4.484,22.411c-0.958,1.379-1.516,4.102-1.513,6.983c-1.258,3.936-0.334,17.359-0.051,22.489
				c0.016,0.281-0.024,1.173-0.009,1.453c0.014,0-2.851,22.595-0.265,33.395l0.862,5.595c-0.67,4.068-3.074,8.438-2.888,9.638
				c0,0,0.298,1.798,1.326,2.66c7.37,6.162,22.298,6.408,29.909,6.408c7.611,0,22.539-0.247,29.912-6.408
				c1.028-0.863,1.331-2.66,1.331-2.66c0.196-1.266-2.229-5.505-2.885-9.638l0.863-5.595c1.274-8.972-0.275-33.395-0.261-33.395
				c0.016-0.28-0.025-1.172-0.009-1.453c0.284-5.13,1.208-18.554-0.05-22.489c0.004-2.881-0.555-5.603-1.513-6.983
				c0.868-8.464,2.152-17.155,4.482-22.411C410.251,315.535,410.822,309.255,410.899,305.082z"/>
			<path style="fill:#A2999A;" d="M387.531,320.838c0.568-0.108,1.136-0.215,1.704-0.323c-1.392-9.497-2.779-15.087-4.186-24.291
				c-0.094-0.613-0.62-1.077-1.24-1.077h-13.415c-0.62,0-1.147,0.464-1.241,1.077c-1.404,9.204-2.789,14.794-4.18,24.291
				c0.568,0.108,1.136,0.215,1.704,0.323c0.818-9.22,2.015-14.847,2.861-23.523c0.063-0.643,0.601-1.144,1.248-1.144h12.508
				c0.646,0,1.184,0.499,1.247,1.142C385.4,305.991,386.712,311.618,387.531,320.838z"/>
			<path style="fill:#282F3A;" d="M377.104,311.855c0.011,0-18.442-0.238-31.862,9.875c1.532,7.47,3.023,14.94,4.484,22.411
				c0,0,7.383-6.469,27.38-6.469c19.996,0,27.38,6.469,27.38,6.469c1.461-7.471,2.951-14.941,4.482-22.411
				C395.547,311.617,377.093,311.856,377.104,311.855z"/>
			<g>
				<g>
					<path style="fill:#282F3A;" d="M348.163,373.613c0.046-7.82,0.062-15.534,0.049-23.354c-1.632-8.915-3.304-17.83-5.036-26.744
						c-0.833,9.595-0.766,33.329-0.729,50.098C344.352,373.613,346.258,373.613,348.163,373.613z"/>
					<path style="fill:#282F3A;" d="M342.453,375.066c0.084,17.539,0.247,40.525,0.25,40.524c1.738-2.376,3.467-4.752,5.186-7.129
						c0.123-8.512,0.212-24.882,0.265-33.395C346.254,375.066,344.353,375.066,342.453,375.066z"/>
				</g>
				<g>
					<path style="fill:#3A454F;" d="M406.049,373.613c-0.045-7.82-0.061-15.534-0.049-23.354c1.632-8.915,3.303-17.83,5.034-26.744
						c0.835,9.595,0.769,33.329,0.731,50.098C409.86,373.613,407.955,373.613,406.049,373.613z"/>
					<path style="fill:#3A454F;" d="M411.759,375.066c-0.085,17.539-0.252,40.525-0.255,40.524
						c-1.738-2.376-3.466-4.752-5.185-7.129c-0.121-8.512-0.208-24.882-0.261-33.395
						C407.958,375.066,409.859,375.066,411.759,375.066z"/>
				</g>
			</g>
			<path style="fill:#282F3A;" d="M405.456,414.057c-6.845,1.285-49.861,1.285-56.705,0c0.007,0-3.389,5.833-2.888,9.638
				c4.628,1.934,14.56,4.39,31.238,4.39c16.678,0,26.611-2.456,31.24-4.39C408.843,419.89,405.449,414.057,405.456,414.057z"/>
			<path style="fill:#3A454F;" d="M404.486,344.141c1.461-7.471,2.951-14.941,4.482-22.411
				c-13.422-10.113-31.875-9.874-31.864-9.875c0.001,8.605,0.002,17.21,0.002,25.816
				C397.103,337.672,404.486,344.141,404.486,344.141z"/>
			<path style="fill:#3A454F;" d="M405.456,414.057c-0.231,0.043-0.482,0.082-0.745,0.116c-0.07,0.009-0.16,0.018-0.235,0.027
				c-0.155,0.019-0.306,0.039-0.471,0.054c-4.711,0.51-15.796,0.766-26.902,0.766c-0.001,4.355-0.002,8.71-0.003,13.064
				c16.678,0,26.611-2.456,31.24-4.39C408.843,419.89,405.449,414.057,405.456,414.057z"/>
			<path style="fill:#C3CCC7;" d="M377.096,441.211c3.739,0,9.072-0.058,14.557-0.713c-0.027-0.131-0.054-0.263-0.081-0.394
				c-0.237-1.155-1.337-2.019-2.468-1.961c-7.996,0.414-16.022,0.414-24.017,0c-1.13-0.058-2.231,0.805-2.469,1.961
				c-0.027,0.131-0.054,0.263-0.081,0.394C368.025,441.154,373.357,441.211,377.096,441.211z"/>
			<g>
				<path style="fill:#DD3E3E;" d="M357.784,441.608c0.002-0.01,0.004-0.019,0.007-0.029c0.186-0.781-0.288-1.545-1.06-1.729
					c-2.297-0.549-4.572-1.193-6.818-1.931c-0.75-0.247-1.572,0.151-1.851,0.908c-0.003,0.009-0.007,0.019-0.01,0.028
					c-0.05,0.137-0.055,0.275-0.065,0.413c2.779,1.396,6.014,2.365,9.376,3.038C357.556,442.114,357.716,441.888,357.784,441.608z"
					/>
				<path style="fill:#DD3E3E;" d="M406.132,438.827c-0.278-0.756-1.1-1.154-1.85-0.908c-2.246,0.738-4.522,1.382-6.819,1.931
					c-0.772,0.184-1.246,0.948-1.06,1.729c0.002,0.01,0.005,0.019,0.007,0.029c0.067,0.281,0.228,0.507,0.42,0.698
					c3.362-0.673,6.597-1.642,9.377-3.038c-0.01-0.138-0.014-0.276-0.065-0.413C406.139,438.845,406.135,438.836,406.132,438.827z"
					/>
			</g>
			<g>
				<path style="fill:#282F3A;" d="M340.967,326.224c-0.061,1.088-0.122,2.176-0.184,3.265c-0.016,0.278,0.114,0.545,0.338,0.698
					c0.202,0.137,0.404,0.275,0.606,0.412c0.191-1.845,0.38-3.69,0.568-5.535c-0.316,0.179-0.633,0.358-0.949,0.537
					C341.125,325.725,340.982,325.961,340.967,326.224z"/>
				<path style="fill:#A2999A;" d="M340.798,328.422c-2.775,0.7-5.549,1.4-8.322,2.099c-0.645,0.163-1.233-0.481-1.021-1.137
					c0.373-1.158,1.452-2.734,4.497-3.622c3.074-0.897,4.62,0.084,5.369,1.04C341.774,327.38,341.488,328.248,340.798,328.422z"/>
			</g>
			<g>
				<path style="fill:#282F3A;" d="M413.676,326.224c0.061,1.088,0.122,2.176,0.184,3.265c0.016,0.278-0.113,0.545-0.338,0.698
					c-0.202,0.137-0.404,0.275-0.606,0.412c-0.191-1.845-0.38-3.69-0.568-5.535c0.316,0.179,0.633,0.358,0.949,0.537
					C413.519,325.725,413.662,325.961,413.676,326.224z"/>
				<path style="fill:#A2999A;" d="M413.845,328.422c2.775,0.7,5.549,1.4,8.322,2.099c0.645,0.163,1.232-0.481,1.022-1.137
					c-0.373-1.158-1.452-2.734-4.498-3.622c-3.074-0.897-4.62,0.084-5.369,1.04C412.869,327.38,413.156,328.248,413.845,328.422z"/>
			</g>
			<g>
				<path style="fill:#FFA312;" d="M357.784,441.608c0.002-0.01,0.005-0.019,0.007-0.029c0.186-0.781-0.288-1.545-1.06-1.729
					c-0.569-0.136-1.133-0.296-1.699-0.443c-0.078,0.772-0.157,1.544-0.236,2.316c0.844,0.215,1.701,0.41,2.567,0.584
					C357.556,442.114,357.716,441.888,357.784,441.608z"/>
				<path style="fill:#FFA312;" d="M396.403,441.579c0.002,0.01,0.005,0.019,0.007,0.029c0.067,0.281,0.228,0.507,0.42,0.698
					c0.867-0.174,1.723-0.368,2.568-0.584c-0.079-0.772-0.157-1.544-0.235-2.316c-0.566,0.147-1.13,0.307-1.699,0.443
					C396.691,440.034,396.217,440.798,396.403,441.579z"/>
			</g>
			<g>
				<g>
					<path style="fill:#282F3A;" d="M340.099,372.426c-0.004,0-0.008,0-0.013,0c-0.347,0-0.627-0.295-0.626-0.659
						c0.005-1.307,0.009-2.614,0.012-3.921c0.001-0.364,0.283-0.659,0.629-0.658c0.004,0,0.009,0,0.013,0
						c0.347,0,0.627,0.295,0.627,0.658c-0.003,1.307-0.007,2.614-0.011,3.921C340.728,372.131,340.446,372.426,340.099,372.426z"/>
					<path style="fill:#282F3A;" d="M339.997,381.492c-0.004,0-0.008,0-0.013,0c-0.348,0-0.627-0.295-0.623-0.658
						c0.013-1.307,0.025-2.614,0.035-3.921c0.003-0.364,0.287-0.659,0.634-0.658c0.004,0,0.009,0,0.013,0
						c0.347,0,0.627,0.295,0.624,0.658c-0.01,1.307-0.022,2.614-0.034,3.921C340.63,381.197,340.345,381.492,339.997,381.492z"/>
				</g>
				<g>
					<path style="fill:#282F3A;" d="M414.127,372.426c-0.004,0-0.008,0-0.013,0c-0.347,0-0.629-0.295-0.631-0.659
						c-0.005-1.307-0.008-2.614-0.011-3.921c-0.001-0.364,0.28-0.659,0.627-0.658c0.004,0,0.008,0,0.013,0
						c0.347,0,0.628,0.295,0.629,0.658c0.003,1.307,0.007,2.614,0.012,3.921C414.753,372.131,414.474,372.426,414.127,372.426z"/>
					<path style="fill:#282F3A;" d="M414.227,381.492c-0.004,0-0.008,0-0.013,0c-0.348,0-0.633-0.295-0.636-0.658
						c-0.012-1.307-0.024-2.614-0.034-3.921c-0.003-0.364,0.277-0.659,0.624-0.658c0.004,0,0.008,0,0.013,0
						c0.348,0,0.632,0.295,0.634,0.658c0.011,1.307,0.022,2.614,0.035,3.921C414.854,381.197,414.575,381.492,414.227,381.492z"/>
				</g>
			</g>
			<g>
				<path style="fill:#282F3A;" d="M392.824,356.172h-31.005c-0.762-6.338-0.519-4.314-1.281-10.652
					c11.037-2.605,22.53-2.605,33.567,0C393.343,351.858,393.586,349.834,392.824,356.172z"/>
				<path style="fill:#3A454F;" d="M392.824,356.172c0.762-6.338,0.519-4.314,1.281-10.652c-5.519-1.302-11.151-1.953-16.783-1.953
					v12.606H392.824z"/>
			</g>
			<g>
				<path style="fill:#BDD6DB;" d="M346.083,276.3c-0.121,0.111-0.238,0.215-0.353,0.312
					C345.845,276.515,345.963,276.411,346.083,276.3z"/>
				<path style="fill:#BDD6DB;" d="M344.302,272.91c1.041,0.468,1.89,1.507,2.325,2.871c-0.16,0.158-0.314,0.306-0.464,0.446
					c0.715-0.669,1.536-1.551,2.518-2.44c2.445-2.213,4.976-3.644,4.012-5.03c-3.467,0.834-6.299,1.952-7.736,3.445
					C344.729,272.439,344.512,272.674,344.302,272.91z"/>
				<path style="fill:#EC9100;" d="M345.73,276.612c-0.033,0.028-0.066,0.056-0.098,0.083
					C345.665,276.668,345.698,276.64,345.73,276.612z"/>
				<path style="fill:#EC9100;" d="M346.163,276.227c-0.027,0.025-0.053,0.048-0.08,0.073
					C346.11,276.276,346.136,276.252,346.163,276.227z"/>
				<path style="fill:#EC9100;" d="M344.302,272.91c-0.547,0.613-1.032,1.229-1.459,1.88c-0.007,0.049-0.015,0.1-0.02,0.148
					c-0.015,0.163-0.02,0.323-0.014,0.477c0.003,0.079,0.003,0.159,0.011,0.235c0.024,0.203,0.071,0.394,0.137,0.575
					c0.02,0.056,0.043,0.11,0.067,0.163c0.089,0.194,0.193,0.379,0.336,0.537c0.101,0.112,0.204,0.194,0.308,0.263
					c0.029,0.019,0.059,0.035,0.088,0.051c0.083,0.046,0.168,0.079,0.253,0.099c0.024,0.006,0.048,0.015,0.073,0.019
					c0.108,0.018,0.218,0.018,0.331,0c0.022-0.003,0.045-0.012,0.067-0.016c0.095-0.02,0.191-0.051,0.289-0.093
					c0.032-0.013,0.063-0.027,0.095-0.042c0.114-0.055,0.23-0.12,0.35-0.2c0.006-0.004,0.011-0.006,0.017-0.01
					c0.129-0.087,0.263-0.191,0.4-0.303c0.032-0.026,0.065-0.055,0.098-0.083c0.115-0.097,0.232-0.201,0.353-0.312
					c0.027-0.024,0.053-0.048,0.08-0.073c0.15-0.141,0.304-0.289,0.464-0.446C346.192,274.417,345.344,273.378,344.302,272.91z"/>
				<path style="fill:#BDD6DB;" d="M405.529,273.788c0.982,0.889,1.803,1.771,2.518,2.44c-0.15-0.141-0.304-0.289-0.464-0.446
					c0.433-1.357,1.275-2.393,2.309-2.864c-0.21-0.24-0.427-0.478-0.656-0.714c-1.435-1.491-4.262-2.608-7.723-3.442
					C400.557,270.146,403.087,271.577,405.529,273.788z"/>
				<path style="fill:#EC9100;" d="M409.892,272.917c-1.034,0.472-1.876,1.507-2.309,2.864c0.16,0.158,0.314,0.306,0.464,0.446
					c0.027,0.025,0.053,0.048,0.08,0.073c0.121,0.111,0.238,0.215,0.353,0.312c0.033,0.028,0.066,0.056,0.098,0.083
					c0.137,0.112,0.271,0.216,0.4,0.303c0.006,0.004,0.011,0.006,0.017,0.01c0.12,0.08,0.236,0.145,0.35,0.2
					c0.032,0.015,0.063,0.029,0.095,0.042c0.098,0.042,0.195,0.073,0.29,0.093c0.022,0.005,0.045,0.013,0.067,0.016
					c0.113,0.018,0.223,0.017,0.331,0c0.025-0.004,0.048-0.014,0.073-0.019c0.086-0.021,0.17-0.054,0.253-0.099
					c0.029-0.016,0.059-0.031,0.088-0.051c0.104-0.069,0.207-0.151,0.308-0.263c0.143-0.159,0.248-0.343,0.336-0.537
					c0.024-0.053,0.047-0.107,0.067-0.163c0.066-0.181,0.113-0.372,0.137-0.575c0.009-0.076,0.008-0.156,0.011-0.235
					c0.006-0.154,0.001-0.314-0.014-0.477c-0.001-0.007-0.002-0.015-0.003-0.022C410.949,274.215,410.453,273.557,409.892,272.917z"
					/>
			
			 </g>
                      


        <g>
</g>
</svg>
