<?xml version="1.0" encoding="utf-8"?>
<!-- Generator: Adobe Illustrator 27.5.0, SVG Export Plug-In . SVG Version: 6.00 Build 0)  -->
<svg version="1.1" xmlns="http://www.w3.org/2000/svg" xmlns:xlink="http://www.w3.org/1999/xlink" x="0px" y="0px"
	 viewBox="0 0 500 500" style="enable-background:new 0 0 500 500;" xml:space="preserve">

<path style="fill:#8E8C75;" d="M160.615,90.539c0-18.646-1.072-28.804-5.915-33.647c-4.843-4.843-24.147-5.756-32.317-5.756
					c-8.17,0-27.473,0.913-32.317,5.756c-4.843,4.843-5.915,14.058-5.915,33.647c0,26.831-3.257,124.038,5.086,130.781
					c8.344,6.743,24.751,7.013,33.145,7.013c8.395,0,24.802-0.27,33.145-7.013C163.872,214.577,160.615,117.37,160.615,90.539z"/>
				<path style="fill:#AAAE8B;" d="M157.329,94.767c0-18.05-0.979-24.722-5.406-29.149c-4.427-4.427-22.072-6.24-29.54-6.24
					c-7.468,0-25.112,1.813-29.539,6.24c-4.427,4.427-5.406,9.104-5.406,29.149c0,4.172,0.484,10.453,1.747,16.646
					c2.362,5.255,3.631,13.944,4.514,22.406c-1.009,1.379-1.603,4.101-1.603,6.981c-1.335,3.935-0.338,12.247,0,17.376
					c0.019,0.281-0.018,1.173,0,1.453c0,0-0.797,17.714,0,25.534c0.193,1.892,0.635,4.511,0.971,5.098
					c0.277,2.402-3.046,12.426-2.7,14.272c0.694,3.703,0.652,8.913,1.72,9.776c7.627,6.164,22.624,6.411,30.297,6.411
					c7.673,0,22.67-0.247,30.297-6.411c1.068-0.863,1.026-6.073,1.72-9.776c0.346-1.845-2.978-11.87-2.7-14.272
					c0.52-1.387,0.779-3.206,0.972-5.098c0.798-7.819,0-25.534,0-25.534c0.018-0.28-0.019-1.172,0-1.453
					c0.338-5.13,1.335-13.442,0-17.376c0-2.88-0.594-5.602-1.603-6.981c0.882-8.462,2.151-17.151,4.513-22.406
					C156.845,105.22,157.329,98.939,157.329,94.767z"/>
				<g>
					<path style="fill:#282F3A;" d="M92.096,158.176v-18.24l-5.086-26.738c-1.015,9.593-1.091,28.213-0.896,44.978H92.096z"/>
					<path style="fill:#282F3A;" d="M86.131,159.63c0.222,17.535,0.723,32.662,0.723,32.662l5.242-7.128V159.63H86.131z"/>
				</g>
				<path style="fill:#282F3A;" d="M122.383,101.54c0,0-19.093-0.238-33.199,9.873l4.513,22.406c0,0,7.762-6.467,28.685-6.467
					c20.923,0,28.685,6.467,28.685,6.467l4.513-22.406C141.476,101.302,122.383,101.54,122.383,101.54z"/>
				<g>
					<path style="fill:#3A454F;" d="M152.672,158.176v-18.24l5.086-26.738c1.016,9.593,1.091,28.213,0.896,44.978H152.672z"/>
					<path style="fill:#3A454F;" d="M158.636,159.63c-0.222,17.535-0.723,32.662-0.723,32.662l-5.242-7.128V159.63H158.636z"/>
				</g>
				<path style="fill:#282F3A;" d="M151.7,190.261c-7.115,1.902-51.518,1.902-58.633,0c0,0-3.351,8.636-2.7,14.272
					c4.817,2.863,15.018,6.501,32.017,6.501c16.999,0,27.2-3.638,32.017-6.501C155.051,198.898,151.7,190.261,151.7,190.261z"/>
				<path style="fill:#AAAE8B;" d="M85.238,118.227l-7.924,1.908c-0.716,0.173-1.394-0.433-1.275-1.16
					c0.23-1.416,1.066-3.449,3.885-4.233C84.438,113.484,85.238,118.227,85.238,118.227z"/>
				<path style="fill:#AAAE8B;" d="M159.529,118.227l7.925,1.908c0.716,0.173,1.394-0.433,1.275-1.16
					c-0.23-1.416-1.066-3.449-3.885-4.233C160.329,113.484,159.529,118.227,159.529,118.227z"/>
				<g>
					<path style="fill:#8E8C75;" d="M108.659,60.035c0,0,0.071,0.538,0.196,1.48c0.062,0.471,0.138,1.043,0.225,1.699
						c0.096,0.652,0.196,1.391,0.194,2.247c0.019,0.841,0.039,1.753,0.06,2.717c0.058,0.968-0.055,1.959-0.116,2.992
						c-0.087,1.03-0.104,2.1-0.255,3.173c-0.16,1.071-0.322,2.158-0.484,3.245c-0.123,1.092-0.442,2.151-0.663,3.207
						c-0.253,1.05-0.456,2.092-0.812,3.062c-0.321,0.975-0.63,1.918-0.924,2.812c-0.3,0.89-0.705,1.691-1.013,2.449
						c-0.345,0.744-0.577,1.46-0.929,2.031c-0.336,0.575-0.63,1.075-0.871,1.488c-0.48,0.82-0.755,1.288-0.755,1.288
						s0.223-0.496,0.614-1.364c0.194-0.431,0.43-0.955,0.7-1.556c0.288-0.59,0.473-1.321,0.75-2.079
						c0.244-0.772,0.578-1.583,0.803-2.482c0.218-0.9,0.449-1.849,0.687-2.831c0.279-0.969,0.374-2.017,0.57-3.055
						c0.158-1.046,0.413-2.091,0.472-3.167c0.099-1.068,0.197-2.135,0.295-3.186c0.088-1.05,0.045-2.091,0.074-3.091
						c0.003-1,0.06-1.975-0.048-2.87c-0.068-0.899-0.133-1.75-0.193-2.535c-0.02-0.777-0.148-1.513-0.27-2.167
						c-0.112-0.652-0.21-1.22-0.29-1.688c-0.161-0.936-0.253-1.471-0.253-1.471L108.659,60.035z"/>
					<path style="fill:#8E8C75;" d="M138.341,60.379c0,0-0.092,0.535-0.253,1.471c-0.08,0.468-0.178,1.036-0.29,1.688
						c-0.122,0.654-0.25,1.39-0.27,2.167c-0.06,0.785-0.125,1.635-0.193,2.535c-0.108,0.896-0.051,1.87-0.048,2.87
						c0.029,1.001-0.014,2.041,0.074,3.091c0.097,1.051,0.196,2.119,0.295,3.186c0.059,1.076,0.314,2.121,0.472,3.167
						c0.196,1.038,0.292,2.086,0.57,3.055c0.238,0.982,0.468,1.931,0.687,2.831c0.225,0.9,0.559,1.71,0.803,2.482
						c0.277,0.759,0.462,1.489,0.75,2.079c0.27,0.601,0.506,1.125,0.7,1.556c0.391,0.868,0.614,1.364,0.614,1.364
						s-0.274-0.468-0.755-1.288c-0.242-0.412-0.535-0.913-0.871-1.488c-0.352-0.571-0.584-1.286-0.929-2.031
						c-0.308-0.758-0.713-1.559-1.013-2.449c-0.294-0.894-0.604-1.837-0.924-2.812c-0.355-0.97-0.558-2.012-0.811-3.062
						c-0.221-1.056-0.54-2.115-0.663-3.207c-0.162-1.087-0.324-2.175-0.484-3.245c-0.15-1.073-0.168-2.142-0.255-3.173
						c-0.061-1.033-0.174-2.025-0.116-2.992c0.021-0.964,0.042-1.875,0.06-2.717c-0.001-0.855,0.099-1.595,0.194-2.247
						c0.087-0.656,0.162-1.228,0.225-1.699c0.124-0.942,0.196-1.48,0.196-1.48L138.341,60.379z"/>
				</g>
				<path style="fill:#3A454F;" d="M151.069,133.819l4.513-22.406c-14.106-10.111-33.199-9.873-33.199-9.873v25.812
					C143.306,127.352,151.069,133.819,151.069,133.819z"/>
				<path style="fill:#3A454F;" d="M151.7,190.261c-0.24,0.064-0.5,0.121-0.773,0.173c-0.073,0.014-0.166,0.027-0.243,0.04
					c-0.161,0.027-0.317,0.057-0.488,0.081c-4.883,0.755-16.338,1.133-27.813,1.133v19.346c16.999,0,27.2-3.638,32.017-6.501
					C155.051,198.898,151.7,190.261,151.7,190.261z"/>
				<path style="fill:#282F3A;" d="M131.676,54.292l1.281-2.618c0.023-0.047,0.031-0.096,0.048-0.143
					c-4.13-0.297-7.966-0.394-10.622-0.394c-2.656,0-6.491,0.098-10.622,0.394c0.017,0.048,0.025,0.096,0.048,0.143l1.281,2.618
					c0.231,0.472,0.711,0.772,1.237,0.772h16.111C130.965,55.064,131.445,54.764,131.676,54.292z"/>
				<g>
					<g>
						<g>
							<path style="fill:#BDD6DB;" d="M89.609,65.163c-0.105,0-0.212-0.012-0.318-0.037c-0.737-0.175-1.193-0.914-1.018-1.651
								c1.134-4.778,4.823-7.495,11.611-8.553c0.741-0.111,1.449,0.396,1.566,1.145c0.117,0.748-0.396,1.449-1.145,1.566
								c-7.203,1.123-8.788,4.05-9.363,6.476C90.792,64.739,90.23,65.163,89.609,65.163z"/>
						</g>
						<path style="fill:#EC9100;" d="M89.611,60.272c-0.611,0.943-1.055,2.009-1.338,3.203c-0.175,0.737,0.281,1.477,1.018,1.651
							c0.106,0.025,0.213,0.037,0.318,0.037c0.621,0,1.183-0.424,1.333-1.055c0.188-0.793,0.49-1.64,1.055-2.461
							C91.312,60.826,90.451,60.433,89.611,60.272z"/>
					</g>
					<g>
						<g>
							<path style="fill:#BDD6DB;" d="M155.158,65.163c0.105,0,0.212-0.012,0.318-0.037c0.737-0.175,1.193-0.914,1.018-1.651
								c-1.134-4.778-4.823-7.495-11.611-8.553c-0.741-0.111-1.449,0.396-1.566,1.145c-0.117,0.748,0.396,1.449,1.145,1.566
								c7.203,1.123,8.788,4.05,9.363,6.476C153.975,64.739,154.537,65.163,155.158,65.163z"/>
						</g>
						<path style="fill:#EC9100;" d="M155.156,60.272c0.611,0.943,1.055,2.009,1.338,3.203c0.175,0.737-0.281,1.477-1.018,1.651
							c-0.106,0.025-0.213,0.037-0.318,0.037c-0.621,0-1.183-0.424-1.333-1.055c-0.188-0.793-0.49-1.64-1.055-2.461
							C153.455,60.826,154.316,60.433,155.156,60.272z"/>
					</g>
				</g>
				<path style="fill:#AAAE8B;" d="M122.383,227.442c3.794,0,9.225-0.062,14.807-0.744c-0.105-0.55-0.21-1.1-0.315-1.651
					c-0.221-1.156-1.313-2.02-2.448-1.962c-8.024,0.414-16.064,0.414-24.088,0c-1.135-0.058-2.227,0.806-2.448,1.962
					c-0.104,0.55-0.209,1.101-0.315,1.651C113.159,227.38,118.59,227.442,122.383,227.442z"/>
				<g>
					<path style="fill:#DD3E3E;" d="M103.029,226.1c0.002-0.01,0.004-0.019,0.006-0.029c0.172-0.781-0.317-1.545-1.096-1.73
						c-2.317-0.549-4.617-1.193-6.894-1.932c-0.761-0.247-1.577,0.152-1.836,0.908c-0.003,0.009-0.007,0.019-0.01,0.028
						c-0.047,0.137-0.048,0.275-0.054,0.413c2.83,1.396,6.096,2.366,9.475,3.04C102.81,226.607,102.967,226.382,103.029,226.1z"/>
					<path style="fill:#DD3E3E;" d="M151.558,223.318c-0.259-0.757-1.075-1.155-1.836-0.908c-2.278,0.739-4.577,1.383-6.894,1.932
						c-0.778,0.185-1.268,0.949-1.096,1.73c0.002,0.01,0.004,0.019,0.006,0.029c0.062,0.281,0.219,0.507,0.408,0.699
						c3.38-0.673,6.645-1.644,9.475-3.04c-0.006-0.138-0.007-0.276-0.054-0.413C151.565,223.337,151.561,223.327,151.558,223.318z"
						/>
				</g>
		
			<g>
				<g>
					<path style="fill:#282F3A;" d="M83.606,154.946h-0.013c-0.364,0-0.658-0.295-0.658-0.658v-3.92
						c0-0.364,0.295-0.658,0.658-0.658h0.013c0.364,0,0.658,0.295,0.658,0.658v3.92C84.264,154.652,83.969,154.946,83.606,154.946z"
						/>
					<path style="fill:#282F3A;" d="M83.606,169.519h-0.013c-0.364,0-0.658-0.295-0.658-0.658v-3.92
						c0-0.363,0.295-0.658,0.658-0.658h0.013c0.364,0,0.658,0.295,0.658,0.658v3.92C84.264,169.224,83.969,169.519,83.606,169.519z"
						/>
				</g>
				<g>
					<path style="fill:#282F3A;" d="M161.175,154.946h-0.013c-0.363,0-0.658-0.295-0.658-0.658v-3.92
						c0-0.364,0.295-0.658,0.658-0.658h0.013c0.364,0,0.658,0.295,0.658,0.658v3.92
						C161.833,154.652,161.538,154.946,161.175,154.946z"/>
					<path style="fill:#282F3A;" d="M161.175,169.519h-0.013c-0.363,0-0.658-0.295-0.658-0.658v-3.92
						c0-0.363,0.295-0.658,0.658-0.658h0.013c0.364,0,0.658,0.295,0.658,0.658v3.92
						C161.833,169.224,161.538,169.519,161.175,169.519z"/>
				</g>
			</g>
		
	
	<g>
</g>
</svg>
